<svg width="661" height="713" viewBox="0 0 661 713" fill="none" xmlns="http://www.w3.org/2000/svg">
<path d="M611.708 124.154C670.568 143.704 730.3 181.24 757.332 233.634C783.928 286.028 778.26 352.889 761.256 422.096C744.252 491.303 716.784 562.856 660.54 599.219C604.732 635.973 520.148 637.928 453.876 616.032C387.604 593.745 339.208 547.607 299.096 506.161C258.548 465.106 226.72 428.743 200.124 383.778C173.528 339.204 152.164 286.028 169.604 246.537C187.48 207.046 243.724 180.849 294.736 158.953C345.748 137.448 390.656 119.853 442.54 111.642C494.424 103.431 552.412 104.995 611.708 124.154Z" fill="#0099FF"/>
<path d="M347.788 231.33C347.785 231.418 347.773 231.506 347.754 231.592C347.725 231.761 347.666 232.011 347.62 232.343C347.462 233.305 347.369 234.278 347.341 235.253C347.295 236.799 347.423 238.345 347.725 239.862C348.133 241.868 348.863 243.794 349.887 245.566C351.19 247.679 352.619 249.712 354.166 251.654C355.935 253.915 357.381 256.413 358.462 259.074C359.63 262.029 360.298 265.159 360.438 268.334C360.736 275.231 358.287 281.965 353.631 287.057C351.499 289.412 348.933 291.333 346.074 292.714C343.359 294.052 340.656 295.042 338.272 296.206C336.029 297.265 333.998 298.724 332.278 300.512C329.805 303.137 328.087 306.383 327.308 309.906C327.151 310.523 327.093 311.07 327.006 311.57C326.919 312.071 326.907 312.473 326.89 312.804C326.872 313.136 326.89 313.386 326.849 313.567C326.855 313.654 326.855 313.741 326.849 313.829C326.842 313.741 326.842 313.654 326.849 313.567C326.849 313.38 326.849 313.124 326.849 312.804C326.849 312.484 326.907 312.053 326.942 311.559C326.977 311.064 327.07 310.505 327.215 309.883C327.528 308.356 328.024 306.873 328.692 305.465C329.57 303.596 330.735 301.875 332.145 300.367C333.87 298.547 335.916 297.062 338.179 295.984C340.58 294.762 343.283 293.779 345.975 292.446C348.785 291.083 351.309 289.195 353.41 286.882C358.009 281.837 360.427 275.175 360.136 268.351C360.002 265.208 359.348 262.108 358.2 259.179C357.131 256.54 355.705 254.061 353.962 251.811C352.418 249.854 350.993 247.805 349.695 245.676C348.67 243.881 347.947 241.928 347.556 239.897C347.26 238.364 347.147 236.801 347.219 235.241C347.257 234.264 347.37 233.291 347.556 232.331C347.614 231.999 347.678 231.749 347.719 231.586L347.788 231.33Z" fill="#E0E0E0"/>
<path d="M372.239 235.433C371.918 236.742 371.518 238.031 371.042 239.292C370.508 240.782 369.858 242.227 369.1 243.616C368.126 245.484 366.829 247.165 365.269 248.581C364.817 248.976 364.338 249.338 363.833 249.663C363.31 249.983 362.764 250.28 362.2 250.571L358.683 252.375C356.253 253.621 353.643 254.924 350.968 256.449C348.184 258.008 345.686 260.034 343.585 262.438C341.32 265.026 339.619 268.059 338.592 271.343C337.583 274.633 337.336 278.11 337.871 281.51C338.356 284.681 339.585 287.69 341.458 290.293C343.254 292.766 345.37 294.803 347.062 296.962C347.899 297.992 348.637 299.099 349.265 300.268C349.829 301.354 350.287 302.492 350.631 303.667C351.211 305.691 351.462 307.796 351.375 309.9C351.309 311.481 351.037 313.046 350.567 314.556C350.276 315.514 349.902 316.445 349.451 317.338C349.294 317.629 349.166 317.856 349.079 318.025C348.992 318.194 348.94 318.252 348.94 318.252C348.94 318.252 348.974 318.165 349.05 318.007C349.126 317.85 349.248 317.606 349.399 317.315C349.822 316.414 350.176 315.482 350.457 314.527C350.903 313.013 351.153 311.449 351.201 309.871C351.269 307.806 351.008 305.743 350.428 303.76C350.08 302.601 349.621 301.478 349.056 300.408C348.431 299.255 347.697 298.166 346.864 297.154C345.178 295.018 343.056 292.993 341.231 290.49C339.326 287.856 338.073 284.806 337.574 281.592C337.033 278.147 337.281 274.624 338.301 271.29C339.344 267.966 341.066 264.896 343.359 262.275C345.482 259.827 348.011 257.763 350.835 256.176C353.52 254.68 356.136 253.388 358.572 252.154L362.089 250.362C362.671 250.076 363.205 249.78 363.717 249.471C364.212 249.154 364.684 248.802 365.13 248.418C366.678 247.024 367.972 245.372 368.955 243.535C369.718 242.157 370.379 240.726 370.931 239.251C371.396 238.041 371.705 237.08 371.914 236.428C372.013 236.114 372.094 235.846 372.146 235.683C372.199 235.521 372.239 235.433 372.239 235.433Z" fill="#E0E0E0"/>
<path d="M363.043 250.001C363.043 250.082 360.217 249.57 356.776 248.837C353.334 248.103 350.556 247.486 350.573 247.405C350.591 247.323 353.393 247.83 356.84 248.569C360.287 249.308 363.043 249.913 363.043 250.001Z" fill="#E0E0E0"/>
<path d="M367.304 245.973C367.304 246.055 362.961 244.856 357.654 243.302C352.346 241.748 348.068 240.392 348.091 240.334C348.114 240.275 352.433 241.451 357.741 243.011C363.048 244.571 367.327 245.892 367.304 245.973Z" fill="#E0E0E0"/>
<path d="M370.426 240.694C370.426 240.77 365.223 239.286 358.863 237.371C352.503 235.456 347.347 233.839 347.382 233.757C347.416 233.676 352.579 235.165 358.973 237.08C365.368 238.995 370.449 240.613 370.426 240.694Z" fill="#E0E0E0"/>
<path d="M350.608 289.67C350.579 289.751 347.8 288.756 344.399 287.447C340.999 286.137 338.272 285.014 338.301 284.938C338.33 284.862 341.109 285.858 344.51 287.161C347.911 288.465 350.637 289.594 350.608 289.67Z" fill="#E0E0E0"/>
<path d="M356.067 283.39C355.814 283.353 355.564 283.293 355.323 283.21C354.846 283.082 354.16 282.872 353.323 282.628C351.649 282.098 349.346 281.318 346.829 280.375C344.312 279.432 342.057 278.519 340.435 277.826C339.627 277.477 338.975 277.186 338.528 276.976C338.291 276.879 338.063 276.761 337.848 276.621C338.097 276.679 338.341 276.76 338.574 276.866L340.516 277.622C342.15 278.268 344.411 279.153 346.911 280.096C349.41 281.039 351.712 281.842 353.369 282.424L355.334 283.122C355.586 283.188 355.831 283.278 356.067 283.39V283.39Z" fill="#E0E0E0"/>
<path d="M359.2 276.621C358.923 276.547 358.655 276.446 358.398 276.319L356.247 275.428C354.433 274.672 351.916 273.647 349.108 272.6C346.3 271.552 343.725 270.679 341.859 270.062L339.644 269.329C339.369 269.252 339.101 269.153 338.842 269.032C339.126 269.066 339.407 269.128 339.679 269.218C340.214 269.358 340.975 269.573 341.923 269.858C343.806 270.44 346.393 271.267 349.213 272.315C352.032 273.362 354.538 274.421 356.334 275.225C357.229 275.626 357.95 275.964 358.444 276.208C358.709 276.321 358.962 276.46 359.2 276.621Z" fill="#E0E0E0"/>
<path d="M359.241 268.147C359.021 268.116 358.806 268.055 358.601 267.967L356.904 267.385C355.468 266.884 353.491 266.221 351.288 265.482C349.085 264.743 347.085 264.155 345.632 263.736L343.888 263.206C343.673 263.154 343.464 263.078 343.266 262.979C343.487 262.991 343.705 263.03 343.917 263.096C344.335 263.183 344.928 263.334 345.661 263.526C347.132 263.916 349.149 264.492 351.352 265.214C353.555 265.936 355.532 266.652 356.95 267.205C357.654 267.478 358.223 267.711 358.613 267.88C358.832 267.944 359.043 268.034 359.241 268.147Z" fill="#E0E0E0"/>
<path d="M359.322 261.565C357.49 261.099 355.683 260.538 353.91 259.883C352.105 259.322 350.331 258.663 348.597 257.91C350.428 258.378 352.235 258.939 354.009 259.592C355.813 260.156 357.587 260.814 359.322 261.565V261.565Z" fill="#E0E0E0"/>
<path d="M350.253 302.451C350.054 302.42 349.859 302.367 349.672 302.293L348.137 301.775L343.091 300.029L338.034 298.33L336.499 297.8C336.306 297.747 336.121 297.671 335.947 297.573C336.145 297.585 336.341 297.624 336.528 297.69C336.9 297.783 337.435 297.928 338.092 298.12C339.406 298.505 341.208 299.069 343.184 299.744C345.161 300.419 346.934 301.071 348.207 301.572C348.847 301.822 349.37 302.031 349.707 302.154C349.903 302.223 350.088 302.323 350.253 302.451V302.451Z" fill="#E0E0E0"/>
<path d="M351.306 310.162C351.276 310.238 346.498 308.69 340.632 306.67C334.767 304.65 330.029 302.998 330.058 302.916C330.087 302.835 334.86 304.389 340.731 306.408C346.603 308.428 351.329 310.051 351.306 310.162Z" fill="#E0E0E0"/>
<path d="M351.207 315.848C351.207 315.93 345.847 314.358 339.295 312.356C332.744 310.354 327.442 308.643 327.465 308.562C327.488 308.48 332.825 310.051 339.382 312.054C345.94 314.056 351.236 315.767 351.207 315.848Z" fill="#E0E0E0"/>
<path d="M254.798 267.432C254.798 267.432 254.641 267.432 254.339 267.432L253.002 267.484C251.839 267.519 250.095 267.571 247.863 267.606C246.747 267.606 245.503 267.606 244.143 267.606C243.428 267.615 242.715 267.549 242.015 267.408C241.303 267.122 240.606 266.797 239.928 266.436C239.187 266.109 238.368 266 237.568 266.122C237.364 266.151 237.155 266.204 236.951 266.244C236.756 266.308 236.573 266.404 236.411 266.529C236.072 266.801 235.776 267.123 235.533 267.484C234.523 269.085 233.702 270.798 233.086 272.588C232.376 274.456 231.749 276.447 230.999 278.507C230.906 278.763 230.801 279.019 230.691 279.275L230.598 279.467C230.582 279.506 230.561 279.541 230.534 279.572C230.516 279.603 230.49 279.629 230.46 279.647C230.429 279.665 230.395 279.676 230.359 279.677C230.15 279.624 230.179 279.52 230.127 279.456C230.096 279.388 230.071 279.318 230.051 279.246C229.911 278.695 229.808 278.135 229.743 277.57C229.592 276.447 229.476 275.294 229.365 274.125C228.941 269.469 228.604 264.428 228.15 259.167C227.912 256.537 227.697 253.83 227.237 251.118C227.173 250.781 227.11 250.443 227.016 250.111C226.975 249.955 226.919 249.803 226.848 249.657C226.767 249.518 226.697 249.454 226.61 249.494C226.358 249.681 226.157 249.93 226.028 250.216C225.861 250.518 225.71 250.829 225.575 251.147C225.017 252.468 224.526 253.816 224.104 255.186C223.249 257.928 222.494 260.75 221.779 263.625L221.505 264.708C221.429 265.082 221.324 265.45 221.192 265.808C221.027 266.176 220.769 266.496 220.444 266.734C220.119 266.973 219.738 267.123 219.337 267.17C218.558 267.199 217.831 267.239 217.052 267.222C216.281 267.194 215.515 267.081 214.768 266.884C213.821 266.639 212.909 266.275 212.053 265.802C211.66 265.548 211.241 265.337 210.803 265.173C210.609 265.095 210.395 265.074 210.189 265.113C209.983 265.152 209.793 265.25 209.64 265.395C209.365 265.76 209.167 266.178 209.059 266.623C208.914 267.071 208.786 267.525 208.658 267.979C208.414 268.887 208.181 269.8 207.955 270.708C207.49 272.524 207.048 274.317 206.472 276.086C206.45 276.153 206.416 276.216 206.373 276.272C206.338 276.326 206.283 276.364 206.221 276.379C206.158 276.394 206.092 276.385 206.036 276.354C205.921 276.266 205.834 276.147 205.786 276.01C205.694 275.792 205.616 275.569 205.554 275.341C205.432 274.893 205.333 274.45 205.24 274.002C205.054 273.112 204.897 272.221 204.751 271.337C204.17 267.804 203.693 264.353 203.182 260.995C202.926 259.324 202.676 257.671 202.339 256.077C202.265 255.679 202.154 255.29 202.008 254.913C201.903 254.587 201.531 254.977 201.31 255.262C200.853 255.906 200.447 256.586 200.095 257.293C198.659 260.098 197.496 262.915 196.2 265.528C195.889 266.185 195.525 266.816 195.113 267.414C195.004 267.589 194.834 267.717 194.636 267.775C194.444 267.814 194.247 267.814 194.055 267.775C193.706 267.652 193.397 267.437 193.16 267.152C192.932 266.914 192.664 266.717 192.369 266.57C192.086 266.424 191.769 266.355 191.451 266.372C190.821 266.521 190.246 266.841 189.788 267.298C189.527 267.524 189.216 267.684 188.881 267.763C188.702 267.794 188.518 267.778 188.346 267.717C188.192 267.645 188.051 267.549 187.928 267.432C187.481 266.981 187.074 266.492 186.713 265.971C186.346 265.47 185.998 264.976 185.631 264.51C185.294 264.053 184.878 263.659 184.405 263.346C183.928 263.032 183.399 263.427 182.975 263.73C182.56 264.065 182.172 264.431 181.812 264.824C181.114 265.563 180.458 266.34 179.847 267.152V267.187H179.806L169.185 267.146H166.378H165.657C165.575 267.152 165.494 267.152 165.413 267.146H165.657H166.378H169.185L179.806 267.106L179.742 267.141C180.352 266.314 181.008 265.524 181.707 264.772C182.079 264.367 182.484 263.993 182.917 263.654C183.14 263.473 183.386 263.322 183.649 263.206C183.793 263.148 183.947 263.116 184.102 263.113C184.261 263.122 184.415 263.17 184.55 263.253C185.052 263.582 185.489 264 185.841 264.487C186.213 264.958 186.567 265.453 186.934 265.947C187.276 266.458 187.666 266.935 188.096 267.373C188.205 267.475 188.328 267.559 188.462 267.624C188.595 267.669 188.737 267.679 188.875 267.653C189.174 267.577 189.451 267.432 189.683 267.228C190.163 266.747 190.767 266.408 191.427 266.25C191.786 266.245 192.141 266.318 192.469 266.465C192.796 266.612 193.088 266.828 193.322 267.1C193.528 267.362 193.802 267.563 194.113 267.682C194.27 267.714 194.432 267.714 194.59 267.682C194.694 267.682 194.816 267.536 194.915 267.402C195.317 266.817 195.671 266.2 195.973 265.558C197.258 262.956 198.415 260.139 199.857 257.311C200.211 256.587 200.625 255.894 201.095 255.239C201.222 255.063 201.375 254.908 201.548 254.779C201.6 254.735 201.66 254.702 201.725 254.682C201.79 254.662 201.859 254.655 201.926 254.662C201.996 254.679 202.061 254.711 202.117 254.756C202.172 254.801 202.216 254.859 202.246 254.924C202.396 255.284 202.512 255.656 202.595 256.036C202.938 257.648 203.176 259.301 203.449 260.977C203.967 264.324 204.443 267.787 205.03 271.313C205.176 272.198 205.333 273.059 205.519 273.967C205.612 274.41 205.711 274.846 205.827 275.283C205.885 275.497 205.957 275.706 206.042 275.911C206.071 275.989 206.114 276.06 206.17 276.121C206.141 276.121 206.17 276.208 206.17 276.156C206.17 276.156 206.17 276.127 206.17 276.156C206.194 276.123 206.212 276.085 206.222 276.045C206.804 274.299 207.234 272.512 207.693 270.702C207.92 269.794 208.146 268.881 208.396 267.967C208.524 267.513 208.652 267.053 208.803 266.599C208.873 266.372 208.954 266.145 209.036 265.918C209.123 265.675 209.258 265.452 209.431 265.261C209.615 265.058 209.864 264.926 210.135 264.888C210.394 264.849 210.659 264.873 210.908 264.958C211.37 265.122 211.811 265.341 212.222 265.61C213.055 266.071 213.944 266.425 214.867 266.663C215.593 266.85 216.338 266.959 217.087 266.989C217.82 266.989 218.599 266.989 219.325 266.937C219.672 266.897 220.002 266.769 220.285 266.566C220.568 266.362 220.794 266.089 220.942 265.773C221.065 265.431 221.164 265.081 221.238 264.725L221.511 263.643C222.244 260.733 223.005 257.933 223.866 255.186C224.302 253.813 224.743 252.457 225.307 251.147C225.453 250.821 225.604 250.501 225.778 250.187C225.871 250.03 225.964 249.878 226.075 249.727C226.191 249.561 226.347 249.427 226.528 249.337C226.591 249.313 226.659 249.305 226.726 249.313C226.793 249.321 226.857 249.345 226.912 249.384C227 249.449 227.072 249.535 227.121 249.634C227.205 249.798 227.27 249.972 227.313 250.152C227.406 250.495 227.476 250.839 227.54 251.182C227.999 253.923 228.208 256.624 228.447 259.254C228.894 264.527 229.22 269.538 229.609 274.218C229.72 275.382 229.83 276.546 229.975 277.657C230.037 278.209 230.136 278.755 230.272 279.293C230.29 279.354 230.311 279.414 230.336 279.473C230.345 279.498 230.357 279.521 230.371 279.543C230.371 279.543 230.371 279.543 230.371 279.543C230.371 279.543 230.342 279.543 230.371 279.59C230.4 279.636 230.371 279.526 230.342 279.543C230.313 279.56 230.342 279.543 230.342 279.543C230.358 279.519 230.372 279.494 230.382 279.467L230.47 279.287C230.58 279.042 230.679 278.786 230.778 278.53C231.522 276.487 232.161 274.491 232.882 272.623C233.508 270.817 234.343 269.09 235.37 267.478C235.629 267.105 235.94 266.772 236.295 266.489C236.468 266.351 236.665 266.246 236.876 266.18C237.087 266.128 237.3 266.088 237.515 266.058C238.346 265.933 239.195 266.048 239.963 266.39C240.701 266.71 241.335 267.158 242.027 267.373C242.716 267.508 243.417 267.574 244.119 267.571C245.474 267.606 246.718 267.571 247.834 267.571L252.973 267.501H254.31C254.641 267.426 254.798 267.432 254.798 267.432Z" fill="#E0E0E0"/>
<path d="M448.236 318.665L457.918 320.648L445.544 381.214C445.424 381.8 445.076 382.315 444.577 382.646C444.078 382.976 443.468 383.094 442.882 382.974L437.608 381.894C437.022 381.773 436.508 381.425 436.178 380.926C435.849 380.426 435.731 379.815 435.851 379.229L448.225 318.663L448.236 318.665Z" fill="#E0E0E0"/>
<path d="M446.096 329.26L455.778 331.241L446.895 374.76C446.775 375.347 446.427 375.862 445.928 376.192C445.429 376.522 444.819 376.64 444.233 376.52L438.959 375.441C438.373 375.321 437.859 374.973 437.529 374.473C437.199 373.974 437.081 373.363 437.201 372.777L446.084 329.258L446.096 329.26Z" fill="#F5F5F5"/>
<path d="M456.699 326.765L450.24 325.444L444.366 354.222L450.825 355.544L456.699 326.765Z" fill="#DDDDDD"/>
<path d="M442.912 382.947C443.339 383.009 443.776 382.961 444.179 382.807C444.664 382.61 445.065 382.25 445.313 381.789C445.456 381.489 445.552 381.169 445.598 380.84C445.668 380.485 445.737 380.107 445.819 379.711C446.464 376.51 447.388 371.883 448.545 366.133C450.87 354.615 454.138 338.604 457.794 320.591L457.91 320.766L450.434 319.241L448.225 318.787L448.406 318.671C444.453 337.918 440.901 355.238 438.331 367.763C437.686 370.888 437.099 373.711 436.587 376.196C436.459 376.813 436.331 377.412 436.215 377.988C436.157 378.273 436.093 378.57 436.041 378.838C435.971 379.101 435.928 379.37 435.913 379.641C435.911 380.148 436.081 380.641 436.395 381.038C436.685 381.397 437.079 381.655 437.523 381.777L441.523 382.633L442.563 382.86C442.796 382.912 442.912 382.947 442.912 382.947L442.557 382.889L441.511 382.691L437.494 381.888C436.996 381.759 436.555 381.469 436.239 381.062C435.924 380.656 435.752 380.156 435.75 379.641C435.761 379.358 435.802 379.077 435.872 378.803C435.924 378.53 435.983 378.221 436.041 377.959C436.157 377.377 436.273 376.795 436.401 376.161C436.901 373.676 437.471 370.847 438.104 367.716C440.651 355.191 444.168 337.865 448.086 318.607V318.461L448.231 318.49L450.446 318.944L457.922 320.475L458.067 320.504V320.65C454.37 338.663 451.091 354.662 448.72 366.174L445.906 379.728C445.819 380.13 445.743 380.503 445.668 380.858C445.618 381.196 445.514 381.524 445.359 381.829C445.105 382.299 444.693 382.664 444.197 382.86C443.891 382.977 443.564 383.024 443.238 382.999C443.128 382.993 443.019 382.975 442.912 382.947V382.947Z" fill="#E0E0E0"/>
<path d="M451.018 306.002L460.553 307.953C460.855 308.015 461.12 308.194 461.29 308.452C461.46 308.709 461.521 309.024 461.459 309.326L458.533 323.661L446.709 321.242L449.633 306.918C449.662 306.766 449.722 306.622 449.807 306.493C449.893 306.364 450.004 306.254 450.133 306.169C450.262 306.084 450.407 306.025 450.559 305.996C450.711 305.968 450.867 305.97 451.018 306.002Z" fill="#EBEBEB"/>
<path d="M458.736 322.169C458.736 322.25 456.05 321.773 452.771 321.104C449.493 320.434 446.853 319.823 446.871 319.742C446.888 319.66 449.557 320.137 452.835 320.807C456.114 321.476 458.748 322.087 458.736 322.169Z" fill="#E0E0E0"/>
<path d="M448.01 319.852C447.923 319.852 448.481 316.779 449.249 313.031C450.016 309.283 450.702 306.251 450.783 306.268C450.865 306.286 450.307 309.341 449.545 313.089C448.784 316.838 448.092 319.87 448.01 319.852Z" fill="#E0E0E0"/>
<path d="M449.597 320.178C449.516 320.178 450.068 317.105 450.836 313.357C451.603 309.609 452.289 306.577 452.37 306.594C452.452 306.612 451.9 309.667 451.132 313.415C450.365 317.163 449.661 320.196 449.597 320.178Z" fill="#E0E0E0"/>
<path d="M451.237 320.51C451.155 320.51 451.708 317.443 452.475 313.689C453.242 309.935 453.928 306.914 454.01 306.932C454.091 306.949 453.539 309.999 452.771 313.753C452.004 317.507 451.318 320.527 451.237 320.51Z" fill="#E0E0E0"/>
<path d="M452.824 320.836C452.742 320.836 453.3 317.769 454.062 314.015C454.824 310.261 455.515 307.24 455.603 307.258C455.69 307.275 455.126 310.325 454.364 314.079C453.603 317.833 452.911 320.853 452.824 320.836Z" fill="#E0E0E0"/>
<path d="M454.463 321.173C454.382 321.173 454.94 318.1 455.701 314.352C456.463 310.604 457.155 307.572 457.236 307.59C457.318 307.607 456.765 310.663 455.998 314.411C455.231 318.159 454.545 321.22 454.463 321.173Z" fill="#E0E0E0"/>
<path d="M456.056 321.499C455.975 321.499 456.527 318.426 457.294 314.678C458.062 310.93 458.748 307.898 458.829 307.915C458.91 307.933 458.358 310.988 457.591 314.737C456.823 318.485 456.137 321.517 456.056 321.499Z" fill="#E0E0E0"/>
<path d="M457.695 321.837C457.614 321.837 458.166 318.764 458.934 315.016C459.701 311.268 460.387 308.236 460.468 308.253C460.55 308.271 459.997 311.32 459.23 315.074C458.463 318.828 457.8 321.849 457.695 321.837Z" fill="#E0E0E0"/>
<path d="M469.346 347.232L477.097 346.517L481.511 394.516C481.565 395.112 481.381 395.706 480.999 396.166C480.617 396.627 480.067 396.916 479.471 396.971L476.206 397.272C475.611 397.327 475.018 397.143 474.558 396.76C474.098 396.377 473.808 395.827 473.754 395.23L469.34 347.232L469.346 347.232Z" fill="#E0E0E0"/>
<path d="M470.128 355.76L477.879 355.046L481.038 389.395C481.093 389.992 480.909 390.586 480.526 391.046C480.144 391.507 479.594 391.796 478.999 391.851L475.734 392.152C475.138 392.207 474.545 392.023 474.085 391.64C473.625 391.257 473.336 390.707 473.281 390.11L470.122 355.761L470.128 355.76Z" fill="#F5F5F5"/>
<path d="M477.547 351.459L472.377 351.936L474.495 374.967L479.665 374.49L477.547 351.459Z" fill="#DDDDDD"/>
<path d="M479.472 396.979C479.809 396.923 480.132 396.805 480.426 396.63C480.773 396.41 481.053 396.097 481.234 395.728C481.352 395.493 481.427 395.238 481.454 394.977C481.47 394.677 481.454 394.377 481.408 394.081C481.164 391.497 480.827 387.778 480.362 383.156C479.495 373.885 478.292 361.011 476.943 346.543L477.106 346.677L471.601 347.183L469.357 347.393L469.491 347.23C470.874 362.472 472.118 376.167 473.014 386.066C473.234 388.534 473.432 390.769 473.595 392.73C473.688 393.708 473.752 394.633 473.845 395.454C473.917 395.821 474.081 396.164 474.322 396.45C474.563 396.736 474.873 396.956 475.223 397.09C475.806 397.25 476.419 397.274 477.013 397.159L478.35 397.049L479.176 396.991H479.461L479.182 397.031L478.356 397.119L477.019 397.258L476.164 397.34C475.831 397.371 475.496 397.327 475.182 397.212C474.81 397.075 474.479 396.846 474.221 396.545C473.963 396.245 473.785 395.883 473.705 395.495C473.601 394.645 473.531 393.749 473.432 392.759C473.246 390.798 473.031 388.563 472.793 386.096C471.874 376.202 470.601 362.507 469.177 347.265V347.113H469.328L471.572 346.904L477.077 346.397H477.228V346.549C478.536 361.023 479.705 373.903 480.548 383.174C480.949 387.795 481.274 391.52 481.501 394.104C481.541 394.409 481.553 394.716 481.536 395.023C481.491 395.369 481.369 395.7 481.178 395.992C480.988 396.285 480.735 396.53 480.437 396.711C480.215 396.845 479.971 396.938 479.716 396.985C479.635 396.988 479.553 396.986 479.472 396.979Z" fill="#E0E0E0"/>
<path d="M468.791 337.09L475.928 336.432C476.235 336.404 476.541 336.498 476.778 336.696C477.015 336.893 477.164 337.177 477.193 337.484L478.223 348.693L468.764 349.564L467.734 338.362C467.719 338.209 467.735 338.054 467.78 337.907C467.825 337.76 467.899 337.623 467.997 337.505C468.096 337.387 468.216 337.289 468.352 337.218C468.489 337.147 468.637 337.103 468.791 337.09Z" fill="#EBEBEB"/>
<path d="M478.042 347.515C474.899 348.007 471.729 348.299 468.549 348.388C470.112 348.093 471.693 347.899 473.281 347.806C474.86 347.604 476.45 347.506 478.042 347.515V347.515Z" fill="#E0E0E0"/>
<path d="M469.427 348.213C469.106 346.419 468.888 344.608 468.776 342.789C468.555 340.981 468.438 339.162 468.427 337.341C468.741 339.136 468.958 340.947 469.078 342.766C469.292 344.574 469.408 346.392 469.427 348.213V348.213Z" fill="#E0E0E0"/>
<path d="M470.706 348.097C470.385 346.303 470.167 344.492 470.055 342.673C469.834 340.865 469.717 339.046 469.706 337.225C470.019 339.018 470.235 340.827 470.351 342.643C470.569 344.453 470.687 346.274 470.706 348.097V348.097Z" fill="#E0E0E0"/>
<path d="M472.014 347.992C471.7 346.197 471.482 344.386 471.363 342.568C471.148 340.76 471.032 338.941 471.014 337.12C471.335 338.914 471.552 340.725 471.665 342.544C471.882 344.352 471.999 346.171 472.014 347.992V347.992Z" fill="#E0E0E0"/>
<path d="M473.287 347.858C472.973 346.063 472.755 344.252 472.636 342.434C472.422 340.626 472.305 338.807 472.287 336.986C472.596 338.779 472.806 340.588 472.915 342.405C473.137 344.215 473.261 346.035 473.287 347.858V347.858Z" fill="#E0E0E0"/>
<path d="M474.601 347.736C474.28 345.942 474.062 344.131 473.95 342.312C473.728 340.504 473.612 338.685 473.601 336.864C473.915 338.659 474.132 340.47 474.252 342.288C474.466 344.097 474.582 345.915 474.601 347.736V347.736Z" fill="#E0E0E0"/>
<path d="M475.874 347.62C475.558 345.817 475.346 343.999 475.24 342.172C475.019 340.364 474.903 338.546 474.891 336.724C475.205 338.52 475.423 340.33 475.542 342.149C475.751 343.965 475.862 345.791 475.874 347.62V347.62Z" fill="#E0E0E0"/>
<path d="M477.182 347.497C476.868 345.704 476.65 343.895 476.531 342.079C476.316 340.269 476.2 338.448 476.182 336.626C476.503 338.42 476.72 340.231 476.833 342.05C477.054 343.857 477.17 345.676 477.182 347.497V347.497Z" fill="#E0E0E0"/>
<path d="M244.59 304.709C243.567 300.157 239.248 296.252 234.615 296.706C231.876 296.974 229.383 298.667 227.737 300.85C227.146 301.587 226.608 302.365 226.127 303.178C225.646 302.365 225.108 301.587 224.517 300.85C222.843 298.662 220.383 296.968 217.645 296.695C212.995 296.235 208.693 300.14 207.658 304.685C206.623 309.231 208.338 314.061 211.146 317.786C213.954 321.511 218.605 326.283 226.499 328.099C231.702 326.9 238.3 321.523 241.102 317.804C243.904 314.085 245.613 309.254 244.59 304.709Z" fill="#E0E0E0"/>
<path d="M243.736 313.148H243.585H243.131H241.387L235.021 313.194L235.132 313.113C234.551 315.173 233.905 317.582 233.179 320.225L233.062 320.655L232.917 320.236L229.208 309.58C228.795 308.416 228.394 307.223 227.999 306.088L228.272 306.117L224.104 313.206L224.069 313.27H223.988L212.797 313.212L209.629 313.171H208.786C208.691 313.185 208.596 313.185 208.501 313.171H208.786H209.629L212.797 313.136L223.988 313.084L223.871 313.153L228.005 306.041L228.168 305.756L228.278 306.065C228.673 307.229 229.074 308.393 229.487 309.557L233.19 320.283H232.923C233.673 317.641 234.347 315.237 234.928 313.183V313.101H235.01L241.375 313.153H243.119H243.573L243.736 313.148Z" fill="#FAFAFA"/>
<path d="M318.6 285.066L316.612 336.463L290.905 335.63C290.603 332.645 290.266 321.08 290.266 321.08C290.266 321.08 279.534 319.916 278.9 309.266C278.592 304.092 278.825 293.348 279.145 283.658C279.319 278.494 281.504 273.604 285.232 270.031C288.96 266.459 293.936 264.487 299.096 264.539C301.733 264.572 304.336 265.133 306.753 266.189C309.17 267.245 311.352 268.774 313.169 270.687C314.987 272.6 316.404 274.858 317.336 277.327C318.269 279.797 318.698 282.428 318.6 285.066V285.066Z" fill="#FFBE9D"/>
<path d="M290.254 321.08C295.177 320.939 299.946 319.334 303.956 316.471C303.956 316.471 301.049 324.299 290.364 323.845L290.254 321.08Z" fill="#EB996E"/>
<path d="M282.638 291.282C282.654 291.679 282.823 292.055 283.111 292.329C283.399 292.603 283.782 292.753 284.179 292.749C284.373 292.755 284.566 292.722 284.748 292.653C284.929 292.583 285.095 292.478 285.235 292.344C285.375 292.209 285.487 292.048 285.564 291.87C285.641 291.691 285.682 291.5 285.685 291.305C285.67 290.907 285.5 290.531 285.213 290.256C284.925 289.981 284.542 289.829 284.144 289.833C283.95 289.827 283.756 289.861 283.575 289.931C283.394 290.001 283.228 290.107 283.088 290.242C282.948 290.376 282.836 290.538 282.759 290.716C282.682 290.895 282.641 291.087 282.638 291.282V291.282Z" fill="#263238"/>
<path d="M281.691 289.088C281.889 289.28 282.999 288.372 284.638 288.296C286.278 288.221 287.516 288.989 287.684 288.779C287.766 288.686 287.557 288.337 287.016 287.976C286.282 287.518 285.426 287.299 284.563 287.348C283.714 287.387 282.9 287.694 282.237 288.226C281.749 288.628 281.592 289.006 281.691 289.088Z" fill="#263238"/>
<path d="M298.154 291.23C298.168 291.625 298.334 291.999 298.618 292.274C298.903 292.549 299.282 292.702 299.677 292.702C299.872 292.708 300.066 292.675 300.247 292.606C300.429 292.536 300.595 292.43 300.735 292.295C300.875 292.16 300.987 291.998 301.064 291.819C301.141 291.64 301.182 291.448 301.183 291.253C301.168 290.862 301.003 290.492 300.723 290.22C300.442 289.948 300.068 289.795 299.677 289.792C299.482 289.783 299.287 289.813 299.104 289.881C298.92 289.948 298.753 290.052 298.611 290.187C298.468 290.321 298.355 290.482 298.276 290.662C298.198 290.841 298.156 291.034 298.154 291.23V291.23Z" fill="#263238"/>
<path d="M297.8 288.628C297.997 288.814 299.108 287.906 300.747 287.836C302.386 287.767 303.654 288.523 303.793 288.314C303.875 288.221 303.665 287.871 303.125 287.516C302.393 287.06 301.538 286.84 300.677 286.888C299.828 286.924 299.013 287.232 298.352 287.767C297.858 288.18 297.701 288.547 297.8 288.628Z" fill="#263238"/>
<path d="M292.428 301.071C292.428 300.978 291.411 300.85 289.748 300.716C289.33 300.716 288.928 300.629 288.847 300.344C288.79 299.914 288.867 299.477 289.068 299.092C289.411 298.056 289.771 296.98 290.149 295.845C291.655 291.224 292.719 287.435 292.533 287.377C292.347 287.319 290.957 291.014 289.475 295.612C289.115 296.749 288.772 297.835 288.446 298.871C288.205 299.388 288.155 299.974 288.306 300.524C288.374 300.669 288.474 300.796 288.597 300.897C288.721 300.998 288.866 301.069 289.022 301.106C289.256 301.156 289.496 301.178 289.737 301.17C291.399 301.205 292.428 301.164 292.428 301.071Z" fill="#263238"/>
<path d="M297.3 301.973C297.038 301.973 297.114 303.719 295.655 305.087C294.195 306.455 292.294 306.315 292.289 306.565C292.289 306.676 292.73 306.891 293.527 306.874C294.569 306.839 295.565 306.437 296.341 305.739C297.087 305.071 297.542 304.137 297.608 303.137C297.643 302.392 297.422 301.956 297.3 301.973Z" fill="#263238"/>
<path d="M297.073 282.226C297.253 282.668 298.881 282.377 300.811 282.517C302.741 282.657 304.299 283.099 304.555 282.697C304.659 282.5 304.375 282.115 303.723 281.696C302.862 281.207 301.902 280.921 300.914 280.858C299.926 280.796 298.936 280.959 298.021 281.336C297.352 281.644 296.992 282.022 297.073 282.226Z" fill="#263238"/>
<path d="M282.069 284.315C282.377 284.676 283.481 284.234 284.842 284.152C286.202 284.071 287.353 284.286 287.603 283.885C287.708 283.687 287.51 283.303 286.993 282.994C286.298 282.606 285.504 282.432 284.71 282.494C283.917 282.556 283.16 282.851 282.534 283.343C282.075 283.751 281.935 284.141 282.069 284.315Z" fill="#263238"/>
<path d="M306.491 274.078L306.555 274.119C308.314 275.38 309.521 277.27 309.926 279.397C309.926 279.473 309.926 279.543 309.967 279.613C310.548 282.633 310.595 285.735 311.188 288.75C311.781 291.765 312.972 294.809 315.315 296.793C316.28 297.614 317.937 298.126 318.652 297.084C318.885 296.651 318.994 296.162 318.966 295.67C319.187 288.296 320.879 281.702 320.507 274.008C320.46 272.979 320.17 271.975 319.659 271.081C319.149 270.186 318.433 269.426 317.571 268.863C315.908 267.787 313.891 266.687 312.147 267.612C310.403 268.537 308.246 272 306.915 273.484" fill="#263238"/>
<path d="M315.251 290.24C315.426 290.153 322.466 287.726 322.576 295.03C322.687 302.334 315.344 300.937 315.327 300.728C315.309 300.518 315.251 290.24 315.251 290.24Z" fill="#FFBE9D"/>
<path d="M317.513 297.94C317.548 297.94 317.641 298.027 317.856 298.12C318.162 298.242 318.503 298.242 318.809 298.12C319.576 297.824 320.204 296.59 320.222 295.274C320.231 294.648 320.099 294.028 319.838 293.459C319.766 293.231 319.641 293.024 319.472 292.856C319.303 292.687 319.095 292.563 318.867 292.492C318.721 292.456 318.566 292.472 318.43 292.538C318.294 292.604 318.185 292.715 318.123 292.853C318.024 293.063 318.077 293.208 318.036 293.22C317.995 293.232 317.879 293.098 317.931 292.795C317.969 292.614 318.067 292.452 318.21 292.335C318.41 292.181 318.662 292.11 318.914 292.137C319.214 292.192 319.495 292.323 319.73 292.517C319.966 292.712 320.147 292.964 320.257 293.249C320.577 293.878 320.738 294.575 320.727 295.28C320.727 296.753 319.972 298.138 318.925 298.458C318.731 298.518 318.525 298.533 318.324 298.503C318.123 298.473 317.931 298.398 317.763 298.283C317.53 298.103 317.489 297.94 317.513 297.94Z" fill="#EB996E"/>
<path d="M313.246 269.87C315.35 267.164 310.92 262.461 307.432 260.936C303.944 259.412 299.079 260.651 295.387 261.443C293.062 261.943 290.707 262.741 288.353 262.386C286.79 262.052 285.285 261.487 283.888 260.709C282.486 259.933 280.942 259.448 279.348 259.284C277.755 259.22 276.035 259.866 275.279 261.291C274.523 262.717 275.157 264.783 276.703 265.197C274.82 263.87 271.762 265.005 271.186 267.24C270.611 269.474 272.744 271.942 275.035 271.698C274.093 270.801 272.366 271.919 272.355 273.222C272.343 274.526 273.407 275.591 274.535 276.243C277.441 277.902 280.982 277.861 284.226 277.151C287.469 276.441 290.55 275.108 293.777 274.317C297.003 273.525 302.421 272.058 305.404 273.502C307.613 274.561 308.891 277.5 310.263 277.029C310.91 276.77 311.487 276.363 311.947 275.841C312.408 275.318 312.739 274.694 312.914 274.02C313.241 272.662 313.345 271.261 313.222 269.87" fill="#263238"/>
<path d="M277.11 265.726C277.11 265.726 276.97 265.79 276.744 265.953C276.411 266.193 276.153 266.522 276 266.902C275.749 267.498 275.694 268.158 275.843 268.788C275.939 269.201 276.118 269.59 276.368 269.933C276.619 270.275 276.937 270.562 277.302 270.778C278.201 271.3 279.221 271.579 280.261 271.587C281.458 271.594 282.65 271.419 283.795 271.069C286.243 270.359 288.667 268.91 291.225 267.437C293.783 265.965 296.393 264.737 298.986 264.423C300.206 264.263 301.445 264.34 302.636 264.65C303.68 264.921 304.666 265.383 305.543 266.011C306.817 266.904 307.843 268.105 308.525 269.503C308.789 270.005 308.984 270.539 309.107 271.092C309.072 271.092 308.932 270.51 308.438 269.556C307.725 268.211 306.696 267.06 305.438 266.204C304.584 265.606 303.629 265.168 302.619 264.912C301.456 264.62 300.248 264.555 299.061 264.719C296.538 265.04 293.963 266.262 291.422 267.723C288.882 269.183 286.417 270.633 283.923 271.354C282.747 271.709 281.523 271.877 280.296 271.855C279.214 271.839 278.156 271.533 277.232 270.97C276.833 270.713 276.486 270.383 276.209 269.998C275.901 269.543 275.714 269.016 275.666 268.468C275.618 267.92 275.711 267.369 275.936 266.867C276.11 266.477 276.395 266.147 276.755 265.918C276.864 265.838 276.983 265.773 277.11 265.726V265.726Z" fill="#455A64"/>
<path d="M302.881 262.036C303.038 262.009 303.199 262.009 303.357 262.036C303.787 262.066 304.212 262.142 304.625 262.263C306.009 262.654 307.244 263.455 308.165 264.562C309.086 265.668 309.652 267.028 309.787 268.462C309.829 268.891 309.829 269.324 309.787 269.754C309.781 269.912 309.748 270.067 309.688 270.214C309.63 270.214 309.729 269.544 309.577 268.468C309.394 267.091 308.826 265.795 307.938 264.728C307.051 263.661 305.88 262.867 304.561 262.438C303.549 262.118 302.875 262.095 302.881 262.036Z" fill="#455A64"/>
<path d="M320.355 280.748C320.178 280.848 319.978 280.904 319.774 280.911C319.203 280.96 318.629 280.836 318.129 280.556C317.38 280.151 316.772 279.528 316.385 278.769C315.934 277.856 315.598 276.89 315.385 275.894C315.177 274.921 314.851 273.976 314.414 273.083C314.052 272.366 313.483 271.774 312.781 271.383C312.31 271.116 311.775 270.983 311.234 270.999C310.856 270.999 310.653 271.098 310.653 271.069C310.829 270.962 311.028 270.898 311.234 270.883C311.803 270.818 312.378 270.925 312.885 271.191C313.643 271.577 314.264 272.187 314.664 272.937C315.123 273.851 315.459 274.822 315.664 275.824C315.872 276.797 316.192 277.742 316.617 278.641C316.97 279.365 317.526 279.972 318.216 280.387C318.681 280.663 319.21 280.81 319.751 280.812C320.134 280.788 320.344 280.719 320.355 280.748Z" fill="#455A64"/>
<path d="M319.972 285.573C319.972 285.573 319.914 285.573 319.791 285.619C319.619 285.656 319.444 285.679 319.268 285.689C318.617 285.737 317.962 285.686 317.327 285.538C315.194 285.041 313.326 283.759 312.095 281.947C310.89 280.153 310.153 278.086 309.95 275.935C309.928 275.573 309.872 275.214 309.781 274.864C309.709 274.608 309.561 274.381 309.357 274.212C309.175 274.072 308.957 273.989 308.729 273.973C308.848 273.934 308.975 273.927 309.099 273.951C309.222 273.975 309.337 274.031 309.432 274.113C309.668 274.286 309.845 274.528 309.938 274.805C310.05 275.163 310.124 275.532 310.159 275.905C310.42 278.005 311.169 280.014 312.345 281.772C313.537 283.518 315.315 284.78 317.356 285.328C318.213 285.522 319.093 285.605 319.972 285.573V285.573Z" fill="#455A64"/>
<path d="M268.971 469.927L351.521 469.391L343.19 419.444L341.743 333.57L325.256 328.53L317.117 323.932L290.335 327.325L286.888 331.696C286.888 331.696 275.168 335.654 270.099 337.976L269.75 338.133C266.155 339.775 263.109 342.42 260.978 345.751L238.637 380.549L205.966 361.477L194.456 378.256C194.456 378.256 234.568 411.686 241.841 411.005C249.113 410.324 251.636 410.318 254.147 406.896C256.072 404.266 263.635 395.355 267.239 389.401L270.919 430.543L268.971 469.927Z" fill="#EBEBEB"/>
<path d="M295.126 469.979C295.038 469.979 294.376 451.681 293.649 429.105C292.922 406.53 292.387 388.22 292.486 388.22C292.585 388.22 293.23 406.512 293.963 429.1C294.695 451.687 295.207 469.979 295.126 469.979Z" fill="#263238"/>
<path d="M290.44 326.988L292.515 389.46L317.094 323.932L290.44 326.988Z" fill="#FFBE9D"/>
<path d="M292.701 392.981C292.667 392.92 292.64 392.856 292.62 392.789C292.562 392.649 292.492 392.463 292.405 392.207C292.201 391.694 291.922 390.973 291.562 390.047C290.812 388.185 289.713 385.49 288.19 382.237C287.411 380.613 286.539 378.85 285.504 376.999C284.434 375.045 283.143 373.221 281.656 371.563C280.842 370.725 279.871 369.846 279.528 368.56C279.381 367.922 279.397 367.257 279.575 366.628C279.732 365.999 279.953 365.394 280.156 364.783C280.964 362.321 281.807 359.777 282.662 357.176L282.714 357.013L282.871 357.211L272.988 358.107V357.816L278.261 347.34C279.883 344.151 281.348 341.34 282.609 339.023C283.871 336.707 284.935 334.88 285.673 333.652C286.051 333.035 286.353 332.563 286.562 332.249L286.801 331.9C286.859 331.818 286.888 331.777 286.894 331.783L286.824 331.911L286.603 332.278C286.406 332.621 286.121 333.093 285.76 333.704C285.034 334.949 284.016 336.783 282.772 339.111C281.528 341.439 280.086 344.256 278.482 347.457L275.959 352.52L274.604 355.232L273.901 356.629L273.535 357.333L273.343 357.682L273.244 357.863L273.186 357.95C273.145 358.015 273.084 358.064 273.012 358.09V357.799L282.894 356.891H283.121L283.051 357.112L282.999 357.269C282.139 359.871 281.296 362.414 280.488 364.876C280.104 366.092 279.546 367.314 279.86 368.49C280.174 369.666 281.092 370.527 281.906 371.365C283.411 373.056 284.712 374.917 285.783 376.912C286.818 378.762 287.679 380.537 288.446 382.15C289.946 385.42 291.021 388.133 291.736 390.012C292.085 390.955 292.353 391.689 292.521 392.189C292.61 392.437 292.674 392.631 292.713 392.771C292.714 392.841 292.71 392.911 292.701 392.981V392.981Z" fill="#263238"/>
<path d="M292.62 393.568C292.611 393.501 292.611 393.432 292.62 393.365L292.713 392.783C292.85 392.021 293.054 391.273 293.323 390.548C294.378 387.889 295.717 385.352 297.317 382.982C298.311 381.469 299.445 379.839 300.73 378.128C302.085 376.303 303.541 374.554 305.09 372.89C306.812 371.022 308.697 369.312 310.723 367.78C311.805 366.978 312.928 366.234 314.089 365.551C315.251 364.853 316.472 364.189 317.635 363.415L317.594 363.625C316.009 361.256 313.862 359.318 311.345 357.985L311.135 357.874L311.327 357.735C314.922 355.052 319.109 353.277 323.535 352.561L323.425 352.683L324.686 335.316C324.849 333.221 324.977 331.556 325.07 330.404C325.116 329.822 325.151 329.415 325.18 329.106L325.215 328.774C325.208 328.736 325.208 328.696 325.215 328.658C325.219 328.697 325.219 328.736 325.215 328.774V329.106C325.215 329.42 325.175 329.857 325.146 330.41C325.076 331.574 324.971 333.227 324.843 335.328C324.558 339.57 324.163 345.571 323.681 352.706V352.811H323.576C319.193 353.53 315.048 355.295 311.49 357.956V357.706C314.052 359.059 316.237 361.029 317.85 363.438L317.937 363.561L317.809 363.648C316.646 364.428 315.414 365.097 314.246 365.795C313.093 366.469 311.977 367.203 310.903 367.995C308.896 369.515 307.024 371.208 305.31 373.053C303.76 374.716 302.304 376.464 300.95 378.291C299.66 379.985 298.515 381.602 297.515 383.11C295.901 385.453 294.537 387.96 293.445 390.589C293.164 391.304 292.942 392.042 292.783 392.794C292.73 393.039 292.69 393.237 292.661 393.376C292.654 393.442 292.64 393.506 292.62 393.568Z" fill="#263238"/>
<path d="M323.884 374.52H306.525V377.901H323.884V374.52Z" fill="#263238"/>
<path d="M319.966 404.976C319.872 405.019 319.772 405.048 319.669 405.063L318.809 405.249C317.748 405.47 316.674 405.624 315.594 405.709C313.978 405.856 312.349 405.657 310.816 405.127C308.907 404.462 307.326 403.089 306.398 401.292C305.574 399.478 305.163 397.504 305.194 395.512C305.194 393.691 305.252 392.079 305.258 390.705C305.264 389.331 305.305 388.231 305.345 387.463C305.345 387.079 305.386 386.782 305.403 386.584C305.403 386.48 305.419 386.376 305.45 386.276C305.457 386.379 305.457 386.482 305.45 386.584C305.45 386.823 305.45 387.114 305.45 387.469C305.45 388.278 305.45 389.372 305.45 390.705V395.506C305.434 397.455 305.842 399.384 306.648 401.158C307.538 402.888 309.053 404.214 310.885 404.865C312.376 405.39 313.96 405.602 315.536 405.488C316.609 405.422 317.678 405.302 318.739 405.127L319.611 404.999C319.728 404.977 319.847 404.969 319.966 404.976V404.976Z" fill="#263238"/>
<path d="M323.105 385.874C323.105 385.956 319.152 386.119 314.28 386.229C309.409 386.34 305.45 386.369 305.45 386.282C305.45 386.194 309.397 386.043 314.275 385.927C319.152 385.81 323.105 385.822 323.105 385.874Z" fill="#263238"/>
<path d="M314.507 385.997V380.229C314.507 379.78 314.685 379.349 315.003 379.031C315.32 378.714 315.75 378.535 316.199 378.535V378.535C316.648 378.535 317.078 378.714 317.395 379.031C317.712 379.349 317.891 379.78 317.891 380.229V389.733C317.896 389.809 317.886 389.886 317.862 389.959C317.838 390.032 317.799 390.099 317.749 390.157C317.648 390.273 317.504 390.345 317.35 390.356C317.196 390.367 317.044 390.316 316.927 390.214C316.81 390.113 316.739 389.969 316.728 389.815C316.728 389.745 316.728 389.663 316.728 389.588C316.728 388.138 316.565 385.927 316.565 385.927L314.507 385.997Z" fill="#407BFF"/>
<path d="M314.211 395.96C314.061 394.608 314.01 393.246 314.06 391.886C314.01 390.527 314.06 389.165 314.211 387.812C314.361 389.165 314.412 390.527 314.362 391.886C314.411 393.246 314.361 394.608 314.211 395.96V395.96Z" fill="#263238"/>
<path d="M317.484 403.509C317.402 403.509 317.332 400.599 317.332 397.026C317.332 393.452 317.402 390.542 317.484 390.542C317.565 390.542 317.635 393.452 317.635 397.026C317.635 400.599 317.571 403.509 317.484 403.509Z" fill="#263238"/>
<path d="M290.876 340.129L298.951 349.994C304.654 344.232 308.752 338.54 312.321 336.026C312.321 336.026 292.521 390.338 292.492 389.436C292.463 388.534 290.876 340.129 290.876 340.129Z" fill="#407BFF"/>
<path d="M312.345 336.049C312.284 336.131 312.216 336.207 312.141 336.276L311.513 336.858C310.967 337.376 310.188 338.145 309.234 339.099C307.322 341.002 304.781 343.755 302.009 346.781C299.236 349.808 296.66 352.543 294.707 354.417C293.73 355.354 292.928 356.093 292.353 356.588L291.69 357.17C291.616 357.241 291.534 357.304 291.446 357.356C291.446 357.356 291.51 357.269 291.649 357.129L292.271 356.547C292.823 356.029 293.602 355.261 294.556 354.307C296.463 352.404 299.003 349.651 301.782 346.624C304.561 343.598 307.13 340.862 309.083 338.988C310.06 338.051 310.862 337.312 311.438 336.818L312.095 336.236C312.252 336.102 312.333 336.038 312.345 336.049Z" fill="#263238"/>
<path d="M298.898 349.953C298.834 350.006 296.986 347.852 294.771 345.14C292.556 342.428 290.812 340.182 290.876 340.129C290.94 340.077 292.789 342.23 295.003 344.948C297.218 347.666 298.962 349.901 298.898 349.953Z" fill="#263238"/>
<path d="M264.576 358.998C264.614 359.131 264.637 359.267 264.646 359.405C264.687 359.702 264.733 360.092 264.792 360.569C264.914 361.588 265.071 363.06 265.257 364.887C265.623 368.537 266.059 373.583 266.512 379.158C266.966 384.734 267.384 389.75 267.675 393.435C267.826 395.233 267.948 396.705 268.035 397.759C268.076 398.248 268.105 398.638 268.128 398.923C268.139 399.06 268.139 399.198 268.128 399.336C268.09 399.203 268.065 399.067 268.053 398.929C268.018 398.632 267.971 398.242 267.907 397.765C267.785 396.746 267.628 395.274 267.448 393.446C267.082 389.797 266.64 384.751 266.187 379.176C265.733 373.6 265.321 368.583 265.024 364.899C264.873 363.101 264.751 361.628 264.658 360.575C264.623 360.086 264.594 359.696 264.571 359.411C264.558 359.273 264.56 359.135 264.576 358.998V358.998Z" fill="#263238"/>
<path d="M340.551 333.442C340.551 333.442 353.491 333.442 356.735 358.363C359.979 383.284 367.112 428.989 354.142 437.655C341.173 446.321 281.075 445.71 281.075 445.71V421.568L330.383 416.121C330.383 416.121 330.197 411.628 332.709 411.663L329.907 354.697C329.907 354.697 329.325 334.525 340.551 333.442Z" fill="#EBEBEB"/>
<path d="M330.035 373.629C330.035 373.629 330.035 373.862 330.087 374.316C330.139 374.77 330.151 375.48 330.203 376.341C330.296 378.128 330.436 380.735 330.616 384.076C330.959 390.775 331.453 400.401 332.058 412.128V412.251H331.93C331.513 412.261 331.112 412.415 330.796 412.687C330.475 412.994 330.236 413.376 330.099 413.799C329.807 414.696 329.681 415.638 329.726 416.581V416.703H329.61L281.092 421.702L281.226 421.551V445.71L281.081 445.564C302.072 445.791 320.379 444.982 333.313 443.324C336.551 442.91 339.441 442.439 341.958 441.944C344.098 441.522 346.215 440.987 348.3 440.344C349.143 440.059 349.887 439.762 350.527 439.535C351.166 439.308 351.689 439.034 352.102 438.819L353.021 438.295L353.34 438.126C353.34 438.126 353.241 438.196 353.038 438.318L352.125 438.865C351.713 439.087 351.178 439.314 350.556 439.61C349.934 439.907 349.178 440.146 348.329 440.437C346.246 441.101 344.129 441.652 341.987 442.09C339.47 442.602 336.575 443.085 333.342 443.51C320.396 445.192 302.078 446.071 281.075 445.838H280.929V445.692C280.929 438.708 280.929 431.34 280.929 423.757V421.429H281.069L329.587 416.482L329.471 416.616C329.418 415.629 329.553 414.642 329.866 413.706C330.016 413.247 330.278 412.833 330.628 412.501C330.991 412.192 331.448 412.016 331.924 412L331.808 412.128C331.226 400.401 330.79 390.775 330.476 384.07C330.325 380.729 330.203 378.122 330.122 376.335C330.087 375.451 330.064 374.776 330.04 374.31C330.017 373.844 330.035 373.629 330.035 373.629Z" fill="#263238"/>
<path d="M339.034 418.007C338.981 418.007 338.789 417.506 338.348 416.749C337.766 415.767 337.021 414.891 336.144 414.16C335.264 413.433 334.267 412.861 333.197 412.466C332.377 412.169 331.831 412.076 331.843 412.024C332.328 412.019 332.81 412.1 333.267 412.262C334.391 412.607 335.435 413.172 336.339 413.925C337.244 414.677 337.989 415.601 338.534 416.645C338.78 417.065 338.95 417.526 339.034 418.007V418.007Z" fill="#263238"/>
<path d="M333.238 422.488C332.54 420.185 331.253 418.105 329.506 416.453C329.832 416.605 330.126 416.818 330.372 417.081C331.014 417.663 331.57 418.333 332.023 419.072C332.481 419.806 332.833 420.602 333.069 421.435C333.195 421.771 333.253 422.129 333.238 422.488V422.488Z" fill="#263238"/>
<path d="M162.872 351.682L198.217 445.768L273.192 447.287L242.294 352.328L162.872 351.682Z" fill="#407BFF"/>
<g opacity="0.5">
<path opacity="0.5" d="M210.082 445.937C210.082 445.937 192.131 411.43 186.556 388.406C183.376 375.387 180.545 351.798 180.545 351.798L227.342 352.212C227.342 352.212 242.864 376.941 251.799 401.652C257.15 416.395 261.074 431.618 263.518 447.112L239.504 446.583L231.603 423.524C231.603 423.524 229.138 424.857 225.749 423.134L233.888 446.461L210.082 445.937Z" fill="#DDDDDD"/>
</g>
<path d="M235.731 408.875C235.295 407.606 233.405 403.125 233.708 400.89C234.01 398.655 236.219 396.234 236.341 393.993C236.463 391.753 236.527 386.759 235.957 384.326C235.358 382.175 234.622 380.063 233.754 378.006C233.754 378.006 230.365 372.634 226.958 372.512L222.813 372.36C222.813 372.36 219.814 373.082 221.267 376.795C222.72 380.508 226.15 386.881 226.644 387.981C227.139 389.081 229.452 393.33 228.929 396.054C228.406 398.777 224.447 406.378 224.97 408.229L222.848 408.153C222.848 408.153 220.889 404.754 218.14 403.317C215.39 401.879 209.489 395.675 208.257 391.968C207.024 388.261 205.641 379.635 204.81 377.022C203.978 374.409 202.694 372.116 200.537 371.534C198.38 370.952 195.491 371.685 195.491 371.685C195.491 371.685 191.625 373.018 193.351 378.838C195.078 384.658 196.049 385.013 198.095 388.418C200.141 391.822 200.659 392.841 202.281 394.319C203.903 395.797 207.739 397.433 209.39 400.989C211.041 404.545 211.896 408.671 214.849 413.758C217.802 418.845 218.919 420.742 221.244 420.742C223.569 420.742 224.325 418.106 224.412 416.523C224.468 415.691 224.468 414.857 224.412 414.026L227.226 414.131C227.226 414.131 230.406 420.079 233.743 421.196C237.079 422.313 236.847 419.31 237.015 418.146C237.184 416.982 236.19 410.138 235.731 408.875ZM219.25 415.743C218.366 415.289 216.826 412.309 215.297 409.725C214.134 407.793 214.256 406.774 214.378 406.384C214.398 406.316 214.427 406.251 214.466 406.192L214.419 406.256C214.535 405.581 215.669 405.878 216.5 406.209C217.111 406.454 220.017 407.589 220.965 411.803C221.912 416.016 220.157 416.191 219.267 415.743H219.25ZM233.83 416.272C233.248 416.668 231.289 416.36 229.342 412.111C227.394 407.862 229.586 406.908 230.045 406.704C230.667 406.425 231.626 406.204 232.208 406.902L232.121 406.838C232.199 406.899 232.273 406.965 232.342 407.036C233.173 407.965 233.66 409.153 233.719 410.4C233.987 412.932 234.44 415.877 233.847 416.272H233.83Z" fill="#DDDDDD"/>
<path d="M223.842 406.774C224.54 406.727 224.046 404.074 224.046 404.074C224.121 403.074 224.121 402.07 224.046 401.07C223.918 399.819 224.563 398.673 225.011 397.514C225.459 396.356 225.011 393.266 224.43 391.694C223.848 390.123 224.255 390.001 224.255 390.001C226.046 389.419 224.395 385.688 223.191 382.202C221.988 378.716 220.79 378.966 220.79 378.966C220.79 378.966 219.988 378.937 219.529 381.777C219.07 384.617 218.285 385.624 216.564 385.618H215.646C213.902 385.618 212.373 384.396 209.931 381.451C207.49 378.506 206.693 378.477 206.693 378.477C206.693 378.477 205.292 378.134 206.478 381.62C207.664 385.106 208.553 388.796 210.797 389.541C210.797 389.541 211.262 389.704 211.791 391.287C212.32 392.87 213.983 395.984 215.244 397.2C216.506 398.416 217.965 399.644 218.698 400.913C219.43 402.182 220.796 403.992 220.796 403.992C220.796 403.992 222.465 406.693 223.209 406.791L223.842 406.774Z" fill="#DDDDDD"/>
<path d="M202.083 352.648C202.083 352.648 201.17 352.91 201.827 354.441C202.484 355.971 202.409 356.873 202.787 357.287C203.187 357.702 203.615 358.09 204.065 358.451C204.065 358.451 203.019 358.811 203.792 360.447C204.565 362.082 204.763 363.694 205.118 364.41C205.472 365.126 206.222 365.359 206.571 365.772C206.92 366.185 205.408 365.726 205.804 367.146C206.199 368.566 207.094 369.602 207.088 370.911C207.083 372.221 207.722 373.943 208.966 374.589C210.21 375.235 209.978 376.132 210.012 376.836C210.086 377.801 210.282 378.754 210.594 379.67C211.082 381.492 213.878 384.326 215.593 384.169C217.308 384.012 218.953 381.987 218.541 380.764C217.839 379.097 216.899 377.54 215.75 376.143C215.024 375.416 214.407 375.393 214.541 374.595C214.675 373.798 215.57 375.032 215.529 373.926C215.563 372.786 215.268 371.661 214.681 370.684C213.989 369.654 213.78 368.647 213.117 367.314C212.454 365.982 211.158 365.737 211.262 365.44C211.367 365.144 212.076 365.272 211.489 363.945C210.902 362.618 210.867 363.52 210.239 361.489C209.611 359.457 209.327 358.241 208.716 358.421C208.106 358.602 208.199 357.7 207.984 356.286C207.769 354.871 208.28 355.395 207.402 353.859C206.524 352.322 202.083 352.648 202.083 352.648Z" fill="#DDDDDD"/>
<path d="M203.257 402.642L204.031 400.791L202.781 397.072C202.781 397.072 204.874 395.797 207.786 400.029C210.698 404.26 210.507 406.268 210.507 406.268L207.054 406.145C206.572 407.357 206.529 408.7 206.931 409.94C207.635 411.849 208.675 411.616 209.6 414.963C210.083 416.494 210.427 418.066 210.629 419.659L221.395 445.768L216.587 445.593L204.961 417.931C204.961 417.931 203.641 417.075 201.473 412.879C199.304 408.683 197.27 403.23 198.659 401.757C200.048 400.285 203.257 402.642 203.257 402.642Z" fill="#DDDDDD"/>
<path d="M241.654 404.044L239.579 402.118L238.283 398.399C238.283 398.399 235.248 396.938 235.196 401.059C235.144 405.179 236.736 407.257 236.736 407.257L240.189 407.379C240.189 407.379 242.346 409.381 242.945 411.279C243.544 413.176 242.364 412.868 243.689 416.231C244.305 417.862 245.039 419.446 245.887 420.969L252.932 446.932L257.746 447.107L250.491 419.578C250.491 419.578 251.258 418.798 250.543 414.654C249.828 410.51 248.171 405.08 245.718 403.468C245.102 403.006 244.329 402.808 243.567 402.916C242.806 403.024 242.118 403.43 241.654 404.044Z" fill="#DDDDDD"/>
<path d="M162.872 351.682L242.294 352.2H242.381L242.41 352.287C251.09 378.931 261.524 410.976 272.75 445.407L273.331 447.217L273.401 447.421H273.186L198.194 445.89H198.101L198.066 445.803L162.872 351.682C163.291 352.805 177.318 389.977 198.333 445.721L198.211 445.634L273.203 447.136L273.058 447.334C272.86 446.752 272.663 446.135 272.477 445.524L242.189 352.369L242.306 352.456L162.872 351.682Z" fill="#263238"/>
<path d="M281.191 423.536H273.674C273.674 423.536 269.826 419.817 268.779 419.293C267.733 418.769 262.594 417.215 262.594 417.215L264.576 422.721C264.887 422.809 265.191 422.916 265.489 423.041C266.803 423.553 266.437 424.717 265.39 424.717H257.821C257.821 424.717 250.066 420.992 248.915 421.673C247.95 422.255 247.613 423.274 248.601 424.717C249.59 426.16 256.385 429.553 257.164 429.815L259.385 430.467L257.298 431.119L247.415 427.668C246.77 427.551 245.887 427.447 245.596 427.819C245.47 427.946 245.372 428.097 245.307 428.263C245.241 428.429 245.21 428.606 245.215 428.785C245.219 428.963 245.26 429.139 245.335 429.301C245.409 429.463 245.516 429.608 245.648 429.728C247.056 431.002 248.55 432.179 250.119 433.249C250.119 433.249 248.543 435.577 249.845 436.741C251.148 437.905 254.938 441.45 254.938 441.45C254.938 441.45 255.333 443.411 256.508 444.325C257.682 445.238 270.611 445.238 271.523 445.238C272.436 445.238 277.662 442.235 277.662 442.235L281.08 441.874L281.191 423.536Z" fill="#FFBE9D"/>
<path d="M258.781 436.986C258.325 437.132 257.846 437.197 257.368 437.178C256.84 437.179 256.317 437.087 255.822 436.904C255.23 436.67 254.666 436.369 254.142 436.008C253.02 435.28 252.02 434.605 251.299 434.105C250.895 433.859 250.519 433.57 250.177 433.243C250.615 433.425 251.032 433.653 251.421 433.924C252.165 434.378 253.165 435.024 254.328 435.752C254.836 436.101 255.377 436.399 255.944 436.642C256.407 436.83 256.898 436.939 257.397 436.962C258.234 437.003 258.781 436.933 258.781 436.986Z" fill="#EB996E"/>
<path d="M259.374 441.828C259.403 441.828 259.094 442.2 258.397 442.381C257.483 442.577 256.529 442.416 255.729 441.933C254.944 441.486 254.218 440.945 253.566 440.32C253.275 440.084 253.026 439.801 252.828 439.482C252.897 439.401 254.083 440.646 255.874 441.665C256.616 442.116 257.491 442.295 258.35 442.171C258.701 442.087 259.043 441.972 259.374 441.828V441.828Z" fill="#EB996E"/>
<path d="M263.053 431.113C262.368 431.198 261.672 431.145 261.007 430.956C260.322 430.865 259.663 430.64 259.065 430.293C259.744 430.352 260.415 430.475 261.071 430.659C261.744 430.75 262.408 430.902 263.053 431.113V431.113Z" fill="#EB996E"/>
<path d="M159.942 368.694C159.574 368.484 159.252 368.201 158.995 367.864C158.738 367.526 158.553 367.139 158.449 366.728C158.345 366.316 158.326 365.888 158.391 365.469C158.457 365.049 158.607 364.648 158.832 364.288C159.107 363.776 159.507 363.341 159.995 363.025C161.256 362.356 172.418 360.261 173.615 360.115C174.813 359.97 175.034 362.251 173.47 363.386C171.906 364.521 159.971 368.705 159.971 368.705L159.942 368.694Z" fill="#FFBE9D"/>
<path d="M162.541 376.795C162.175 376.585 161.854 376.302 161.599 375.965C161.344 375.628 161.159 375.244 161.056 374.834C160.952 374.424 160.932 373.997 160.996 373.579C161.061 373.161 161.208 372.761 161.43 372.401C161.704 371.888 162.104 371.453 162.593 371.138C163.855 370.469 175.249 367.472 176.214 368.228C177.376 369.101 177.632 370.358 176.068 371.499C174.505 372.64 162.57 376.818 162.57 376.818L162.541 376.795Z" fill="#FFBE9D"/>
<path d="M164.808 375.119C164.282 375.241 163.788 375.477 163.363 375.811C162.938 376.145 162.592 376.568 162.349 377.051C162.082 377.571 162.002 378.167 162.122 378.739C162.307 379.595 162.72 380.386 163.318 381.025C163.916 381.665 164.676 382.13 165.517 382.371C167.558 383.011 174.202 381.515 174.202 381.515L172.668 377.226L177.318 375.701C179.213 374.944 178.295 371.976 176.016 372.552C175.272 372.739 167.471 374.456 164.808 375.119Z" fill="#FFBE9D"/>
<path d="M161.32 372.518C160.953 372.307 160.632 372.026 160.377 371.689C160.121 371.352 159.936 370.967 159.833 370.557C159.729 370.146 159.709 369.72 159.774 369.302C159.838 368.883 159.987 368.483 160.21 368.123C160.485 367.611 160.885 367.177 161.372 366.86C162.634 366.191 172.784 364.381 173.964 364.131C175.144 363.881 176.411 366.063 174.848 367.198C173.284 368.333 161.32 372.518 161.32 372.518Z" fill="#FFBE9D"/>
<path d="M172.79 368.438C172.21 368.636 171.615 368.788 171.011 368.892C169.906 369.136 168.377 369.474 166.686 369.788C165.245 370.015 163.862 370.523 162.616 371.284C162.129 371.645 161.692 372.072 161.32 372.552C161.32 372.552 161.367 372.378 161.535 372.104C161.784 371.72 162.099 371.384 162.465 371.109C162.997 370.707 163.585 370.386 164.209 370.155C164.978 369.875 165.767 369.653 166.569 369.491C168.267 369.154 169.807 368.874 170.924 368.682C171.537 368.546 172.162 368.464 172.79 368.438V368.438Z" fill="#EB996E"/>
<path d="M170.831 364.725C170.276 364.912 169.706 365.05 169.127 365.138L164.982 365.941C163.607 366.169 162.294 366.683 161.128 367.448C160.699 367.822 160.309 368.24 159.966 368.694C159.966 368.694 160.012 368.525 160.169 368.263C160.395 367.89 160.682 367.558 161.018 367.279C161.861 366.535 163.343 365.999 164.942 365.65C166.54 365.301 168.04 365.103 169.11 364.928C169.677 364.812 170.252 364.744 170.831 364.725V364.725Z" fill="#EB996E"/>
<path d="M172.947 373.193C172.429 373.401 171.894 373.564 171.348 373.681C170.354 373.949 168.965 374.304 167.418 374.56C166.091 374.731 164.81 375.158 163.645 375.817C163.214 376.139 162.823 376.512 162.483 376.929C162.483 376.929 162.523 376.772 162.686 376.527C162.927 376.186 163.224 375.887 163.564 375.643C164.717 374.914 166.014 374.443 167.366 374.263C168.918 374.007 170.273 373.681 171.307 373.478C171.844 373.332 172.393 373.236 172.947 373.193Z" fill="#EB996E"/>
<path d="M173.575 376.929C172.805 377.343 171.992 377.669 171.15 377.901C170.334 378.223 169.484 378.452 168.616 378.582C169.384 378.167 170.197 377.843 171.04 377.616C171.856 377.292 172.706 377.061 173.575 376.929V376.929Z" fill="#EB996E"/>
<path d="M410.892 309.731C411.601 308.694 412.541 307.837 413.638 307.227C414.735 306.617 415.959 306.271 417.212 306.216C418.466 306.162 419.715 306.401 420.861 306.914C422.007 307.427 423.017 308.2 423.812 309.172C424.608 310.144 425.166 311.288 425.443 312.513C425.72 313.738 425.708 315.011 425.408 316.231C425.108 317.451 424.529 318.585 423.716 319.542C422.902 320.498 421.877 321.252 420.723 321.744C422.009 322.376 422.994 323.491 423.464 324.846C423.934 326.201 423.851 327.687 423.233 328.982C422.615 330.276 421.513 331.274 420.164 331.76C418.816 332.245 417.331 332.178 416.031 331.574C415.398 333.809 412.898 335.159 410.584 335.002C408.27 334.845 406.183 333.471 404.602 331.772C402.956 330.005 401.773 327.858 401.157 325.523C400.541 323.187 400.513 320.735 401.073 318.386C402.306 313.73 406.305 309.83 411.078 309.027" fill="#263238"/>
<path d="M414.566 306.088C414.566 306.088 414.607 306.14 414.665 306.251C414.75 306.413 414.823 306.58 414.886 306.751C415.13 307.394 415.281 308.068 415.334 308.754C415.422 309.8 415.305 310.854 414.991 311.856C414.598 313.136 413.883 314.295 412.915 315.22V315.028C413.716 316.123 414.244 317.394 414.456 318.735C414.741 320.375 414.525 322.063 413.838 323.579C413.15 325.094 412.023 326.368 410.601 327.232C409.757 327.763 408.824 328.136 407.846 328.332C407.583 328.385 407.317 328.42 407.05 328.437C406.955 328.446 406.859 328.446 406.765 328.437C406.765 328.402 407.148 328.373 407.823 328.216C408.768 327.975 409.667 327.582 410.485 327.052C411.428 326.436 412.237 325.635 412.862 324.697C413.487 323.759 413.915 322.704 414.12 321.595C414.326 320.487 414.304 319.348 414.057 318.248C413.81 317.148 413.342 316.11 412.683 315.196L412.607 315.092L412.7 315.004C413.642 314.121 414.343 313.011 414.735 311.78C415.057 310.809 415.193 309.786 415.136 308.765C415.073 307.85 414.881 306.949 414.566 306.088Z" fill="#455A64"/>
<path d="M437.814 304.47C437.54 304.663 437.253 304.834 436.953 304.982C436.372 305.291 435.57 305.727 434.552 306.251C432.506 307.304 429.658 308.695 426.454 310.127C423.251 311.559 420.31 312.746 418.165 313.567C417.095 313.974 416.223 314.3 415.613 314.51C415.304 314.632 414.988 314.731 414.665 314.806C414.956 314.646 415.259 314.51 415.572 314.399L418.089 313.369C420.211 312.496 423.135 311.274 426.332 309.877C429.53 308.48 432.39 307.089 434.471 306.088L436.918 304.924C437.205 304.75 437.504 304.598 437.814 304.47V304.47Z" fill="#B7CDFF"/>
<path d="M430.239 296.927C430.291 296.991 427.1 300.047 423.106 303.748C419.112 307.45 415.828 310.412 415.77 310.348C415.711 310.284 418.909 307.252 422.92 303.527C426.931 299.802 430.181 296.869 430.239 296.927Z" fill="#B7CDFF"/>
<path d="M395.475 284.321C395.475 278.059 387.999 277.75 384.221 279.316C382.186 276.522 380.733 275.114 376.053 274.823C372.617 274.602 367.379 276.33 364.74 279.793C363.444 281.553 362.633 283.622 362.386 285.795C362.139 287.967 362.466 290.166 363.333 292.172C363.915 293.494 364.746 294.82 364.583 296.246C364.345 298.318 362.223 299.529 360.851 301.094C359.726 302.438 359.079 304.118 359.012 305.87C358.945 307.622 359.461 309.347 360.479 310.773C361.81 312.519 363.926 313.782 364.63 315.877C365.211 317.623 364.665 319.55 364.775 321.4C364.978 324.805 367.56 327.802 370.722 329.03C373.884 330.258 377.506 329.985 380.704 328.821" fill="#263238"/>
<path d="M368.129 350.012L379.855 344.774L380.256 336.922C380.256 336.922 371.443 335.619 369.414 324.177C368.408 318.485 368.53 309.12 368.873 301.479C369.187 294.582 376.477 287.575 383.343 288.18L405.643 292.015V295.723L405.846 343.004L417.38 348.574L391.22 379.513L368.129 350.012Z" fill="#FFD4C7"/>
<path d="M373.042 309.58C373.045 309.963 373.197 310.33 373.466 310.601C373.736 310.873 374.101 311.029 374.483 311.035C374.67 311.046 374.858 311.02 375.034 310.957C375.211 310.895 375.374 310.799 375.513 310.673C375.652 310.547 375.764 310.395 375.844 310.226C375.924 310.056 375.969 309.872 375.977 309.685C375.974 309.301 375.822 308.934 375.553 308.661C375.284 308.388 374.919 308.231 374.536 308.224C374.348 308.212 374.16 308.238 373.982 308.3C373.805 308.363 373.642 308.46 373.503 308.586C373.363 308.713 373.251 308.866 373.172 309.036C373.092 309.207 373.048 309.392 373.042 309.58V309.58Z" fill="#263238"/>
<path d="M370.989 306.274C371.175 306.46 372.274 305.617 373.855 305.593C375.437 305.57 376.611 306.344 376.762 306.146C376.849 306.059 376.657 305.716 376.146 305.355C375.458 304.897 374.647 304.659 373.821 304.674C372.997 304.686 372.198 304.961 371.542 305.459C371.059 305.838 370.896 306.187 370.989 306.274Z" fill="#263238"/>
<path d="M387.825 309.58C387.826 309.964 387.978 310.332 388.248 310.605C388.517 310.878 388.883 311.035 389.267 311.041C389.454 311.052 389.642 311.025 389.819 310.963C389.996 310.9 390.159 310.803 390.298 310.677C390.437 310.55 390.55 310.398 390.629 310.227C390.709 310.057 390.753 309.873 390.761 309.685C390.756 309.302 390.603 308.935 390.335 308.663C390.066 308.39 389.701 308.233 389.319 308.224C389.131 308.212 388.943 308.238 388.766 308.3C388.588 308.363 388.425 308.46 388.286 308.586C388.147 308.713 388.034 308.866 387.955 309.036C387.876 309.207 387.832 309.392 387.825 309.58V309.58Z" fill="#263238"/>
<path d="M386.546 306.292C386.732 306.484 387.836 305.634 389.418 305.611C390.999 305.587 392.173 306.362 392.324 306.164C392.406 306.076 392.214 305.733 391.702 305.372C391.014 304.916 390.203 304.681 389.377 304.697C388.554 304.708 387.756 304.981 387.098 305.477C386.616 305.861 386.459 306.21 386.546 306.292Z" fill="#263238"/>
<path d="M381.017 318.141C381.017 318.054 380.035 317.903 378.436 317.722C378.029 317.687 377.646 317.617 377.576 317.344C377.533 316.926 377.621 316.505 377.826 316.139C378.186 315.15 378.564 314.12 378.989 313.037C380.57 308.62 381.703 304.994 381.529 304.93C381.355 304.866 379.925 308.422 378.343 312.81C377.96 313.898 377.599 314.94 377.25 315.93C377.006 316.424 376.942 316.988 377.07 317.524C377.131 317.666 377.224 317.792 377.34 317.893C377.457 317.994 377.595 318.067 377.745 318.106C377.969 318.163 378.199 318.192 378.431 318.194C380.018 318.24 381.012 318.234 381.017 318.141Z" fill="#263238"/>
<path d="M380.256 336.934C385.654 336.921 390.943 335.408 395.533 332.563C395.533 332.563 391.604 340.653 380.111 339.786L380.256 336.934Z" fill="#DDDDDD"/>
<path d="M381.75 321.947C382.046 321.563 382.434 321.26 382.878 321.067C383.322 320.874 383.808 320.796 384.29 320.842C384.639 320.869 384.979 320.965 385.291 321.125C385.602 321.285 385.879 321.505 386.104 321.773C386.321 322.034 386.452 322.356 386.48 322.694C386.508 323.032 386.431 323.371 386.261 323.664C386.015 323.957 385.687 324.17 385.319 324.273C384.951 324.377 384.56 324.368 384.197 324.246C383.446 323.996 382.751 323.601 382.151 323.082C381.972 322.958 381.816 322.802 381.692 322.623C381.636 322.536 381.606 322.435 381.606 322.332C381.606 322.228 381.636 322.127 381.692 322.041" fill="#DDDDDD"/>
<path d="M385.715 319.154C385.459 319.154 385.482 320.865 384.035 322.11C382.587 323.356 380.756 323.199 380.744 323.443C380.744 323.548 381.157 323.769 381.907 323.775C382.914 323.772 383.888 323.413 384.657 322.762C385.394 322.136 385.859 321.247 385.953 320.283C386.005 319.567 385.808 319.142 385.715 319.154Z" fill="#263238"/>
<path d="M386.029 300.093C386.191 300.518 387.773 300.285 389.627 300.478C391.481 300.67 392.999 301.153 393.237 300.757C393.348 300.571 393.08 300.175 392.464 299.767C391.647 299.27 390.728 298.966 389.776 298.877C388.824 298.788 387.865 298.918 386.97 299.255C386.296 299.546 385.959 299.89 386.029 300.093Z" fill="#263238"/>
<path d="M371.489 301.682C371.774 302.031 372.861 301.642 374.169 301.601C375.477 301.56 376.594 301.799 376.843 301.42C376.954 301.234 376.768 300.873 376.262 300.542C375.602 300.147 374.841 299.956 374.073 299.995C373.305 300.033 372.566 300.298 371.949 300.757C371.513 301.135 371.367 301.508 371.489 301.682Z" fill="#263238"/>
<path d="M365.851 287.464C367.595 291.538 371.6 297.579 375.983 298.115C378.181 298.352 380.402 298.023 382.437 297.159C384.472 296.296 386.252 294.926 387.61 293.179C388.273 296.45 391.9 298.184 395.167 298.726C397.493 299.11 399.946 299.133 402.143 298.254C404.341 297.375 406.213 295.467 406.555 293.138C406.898 290.81 403.596 285.072 401.277 284.641" fill="#263238"/>
<path d="M395.993 295.612C395.226 297.33 395.168 299.281 395.831 301.041C396.494 302.801 397.824 304.228 399.533 305.011C397.917 307.019 397.626 309.865 398.242 312.374C398.859 314.882 400.271 317.123 401.789 319.212C401.789 319.212 397.847 324.922 405.782 329.106C405.782 329.106 411.352 327.36 408.863 318.973C408.665 318.373 408.703 317.72 408.968 317.146C409.315 316.659 409.793 316.282 410.346 316.058C412.438 314.891 413.988 312.948 414.661 310.647C415.335 308.346 415.077 305.872 413.944 303.76C413.595 303.223 413.334 302.634 413.171 302.014C413.014 301.071 412.293 298.609 412.59 297.707C414.293 292.999 412.101 287.15 406.585 284.246C402.161 281.918 396.62 281.528 393.214 285.212" fill="#263238"/>
<path d="M426.797 387.166L434.355 357.572L413.154 345.891L392.691 377.47L374.152 346.764L355.055 355.418C353.799 355.989 352.79 356.993 352.212 358.247L334.935 405.028L358.282 412.594L360.956 401.751L364.031 420.474L355.148 469.607L431.378 469.327L417.868 418.885L419.746 407.635L426.797 387.166Z" fill="#B7CDFF"/>
<g opacity="0.3">
<path opacity="0.3" d="M362.798 425.526C368.03 426.411 372.739 421.772 378.041 421.731C382.93 421.696 386.988 425.532 391.749 426.643C393.847 427.132 396.138 427.115 397.952 428.267C399.347 429.152 400.277 430.595 401.23 431.94C405.886 438.303 412.676 442.772 420.356 444.528C421.519 444.79 424.123 445.692 424.838 444.709L424.083 441.694L423.42 432.551L397.876 413.927L368.722 415.358L362.798 425.526Z" fill="black"/>
</g>
<path d="M418.793 382.697H403.021V385.31H418.793V382.697Z" fill="#263238"/>
<path d="M419.862 414.625C426.257 416.895 433.233 416.552 439.907 415.568C441.494 415.329 443.15 415.027 444.4 414.02C444.819 413.688 445.83 412.856 445.813 412.635C445.766 412.024 444.65 411.209 444.017 410.703C441.588 408.824 438.786 407.489 435.799 406.786C432.812 406.083 429.708 406.029 426.699 406.629C425.094 406.918 423.559 407.51 422.176 408.375C420.821 409.282 419.973 409.783 419.508 411.349" fill="#B7CDFF"/>
<g opacity="0.3">
<path opacity="0.3" d="M419.862 414.625C426.257 416.895 433.233 416.552 439.907 415.568C441.494 415.329 443.15 415.027 444.4 414.02C444.819 413.688 445.83 412.856 445.813 412.635C445.766 412.024 444.65 411.209 444.017 410.703C441.588 408.824 438.786 407.489 435.799 406.786C432.812 406.083 429.708 406.029 426.699 406.629C425.094 406.918 423.559 407.51 422.176 408.375C420.821 409.282 419.973 409.783 419.508 411.349" fill="black"/>
</g>
<path d="M445.813 412.635C445.813 412.635 439.116 372.646 438.703 369.078C437.663 360.231 434.337 357.403 434.337 357.403L418.793 405.028L419.868 414.625C419.868 414.625 424.78 407.222 445.813 412.635Z" fill="#B7CDFF"/>
<path d="M437.244 380.52C437.173 380.857 437.075 381.188 436.953 381.509C436.756 382.144 436.424 383.046 435.994 384.152C434.851 387.027 433.491 389.812 431.925 392.48C430.351 395.141 428.567 397.671 426.588 400.046C425.827 400.954 425.187 401.676 424.728 402.153C424.5 402.409 424.255 402.65 423.995 402.875C424.189 402.59 424.404 402.321 424.641 402.071C425.071 401.571 425.687 400.832 426.425 399.906C428.342 397.496 430.09 394.956 431.657 392.305C433.216 389.656 434.599 386.907 435.797 384.076C436.25 382.982 436.61 382.091 436.843 381.474C436.953 381.147 437.087 380.828 437.244 380.52Z" fill="#263238"/>
<path d="M363.932 419.479C363.913 419.439 363.901 419.395 363.897 419.351C363.897 419.246 363.856 419.118 363.827 418.961C363.775 418.594 363.694 418.1 363.595 417.471C363.374 416.15 363.066 414.288 362.682 412C361.88 407.356 360.717 401.012 359.45 393.97C358.183 386.928 357.02 380.584 356.177 375.928L355.218 370.457C355.125 369.834 355.044 369.334 354.985 368.967L354.945 368.577C354.936 368.533 354.936 368.488 354.945 368.443C354.963 368.484 354.974 368.527 354.98 368.572C354.98 368.676 355.026 368.804 355.055 368.956C355.125 369.322 355.218 369.817 355.34 370.44C355.596 371.755 355.95 373.606 356.392 375.887C357.27 380.491 358.473 386.858 359.758 393.894C361.043 400.931 362.153 407.309 362.897 411.936C363.269 414.264 363.543 416.127 363.717 417.425C363.793 418.059 363.851 418.559 363.897 418.926C363.897 419.083 363.897 419.211 363.932 419.316C363.94 419.37 363.94 419.425 363.932 419.479Z" fill="#263238"/>
<path d="M427.949 371.272C427.936 371.424 427.909 371.574 427.867 371.72C427.797 372.04 427.704 372.465 427.582 372.995C427.321 374.13 426.954 375.724 426.501 377.651C425.577 381.602 424.298 387.056 422.943 393.097C421.589 399.138 420.409 404.615 419.63 408.596C419.246 410.586 418.932 412.198 418.74 413.316C418.647 413.851 418.566 414.276 418.508 414.602C418.49 414.752 418.457 414.901 418.409 415.044C418.409 414.892 418.423 414.74 418.45 414.59C418.496 414.264 418.554 413.834 418.624 413.298C418.781 412.169 419.06 410.551 419.42 408.555C420.147 404.562 421.286 399.074 422.647 393.027C424.007 386.98 425.315 381.538 426.292 377.598C426.78 375.654 427.181 374.071 427.454 372.942C427.594 372.419 427.71 372 427.792 371.679C427.83 371.539 427.883 371.402 427.949 371.272V371.272Z" fill="#263238"/>
<path d="M369.24 348.813C369.289 348.868 369.332 348.928 369.368 348.993L369.728 349.575C370.048 350.076 370.501 350.797 371.083 351.723L376.012 359.632L392.29 386.037H392.04L392.807 384.949C393.638 383.785 394.452 382.621 395.219 381.55V381.748L380.198 356.809C378.314 353.661 376.797 351.117 375.745 349.348L374.553 347.329L374.251 346.799C374.211 346.741 374.178 346.678 374.152 346.613C374.197 346.666 374.238 346.722 374.274 346.781L374.6 347.299C374.89 347.765 375.309 348.463 375.838 349.296C376.913 351.042 378.46 353.573 380.372 356.705L395.487 381.591L395.533 381.672L395.481 381.754C394.708 382.836 393.894 383.989 393.069 385.153L392.295 386.241L392.162 386.427L392.045 386.235L375.832 359.754C373.786 356.384 372.129 353.661 370.978 351.758C370.397 350.826 369.978 350.093 369.67 349.581L369.339 348.999C369.299 348.94 369.266 348.878 369.24 348.813Z" fill="#263238"/>
<path d="M413.136 345.716C413.116 345.777 413.087 345.834 413.049 345.885L412.752 346.362L411.59 348.19L407.288 354.912L392.789 377.377V377.214C393.429 378.262 394.109 379.379 394.801 380.502L395.452 381.568H395.196C398.3 376.912 401.161 372.453 403.782 368.409C406.404 364.364 408.794 360.749 410.875 357.77C412.956 354.79 414.694 352.427 415.915 350.786L417.339 348.941L417.717 348.463C417.757 348.409 417.802 348.359 417.851 348.312C417.821 348.374 417.784 348.433 417.74 348.487L417.386 348.976C417.06 349.418 416.601 350.052 416.008 350.855C414.845 352.491 413.101 354.871 411.049 357.839C408.997 360.808 406.614 364.451 404.015 368.507C401.416 372.564 398.568 377.092 395.464 381.748L395.33 381.946L395.208 381.742L394.557 380.677L392.551 377.389L392.499 377.313L392.551 377.232L407.131 354.819L411.508 348.149L412.706 346.351L413.02 345.891L413.136 345.716Z" fill="#263238"/>
<path d="M371.507 401.699C370.355 401.201 369.061 401.147 367.872 401.547C366.683 401.947 365.684 402.772 365.066 403.864C364.597 404.795 364.413 405.844 364.537 406.879C364.661 407.915 365.088 408.89 365.763 409.684C367.141 411.151 370.478 412.152 372.03 410.382L371.507 401.699Z" fill="#EBEBEB"/>
<path d="M371.507 401.699C371.547 401.902 371.573 402.109 371.582 402.316C371.617 402.77 371.67 403.363 371.728 404.091C371.838 405.68 371.989 407.851 372.164 410.4V410.458L372.129 410.499C371.782 410.861 371.357 411.138 370.886 411.31C370.416 411.481 369.912 411.542 369.414 411.488C368.352 411.419 367.327 411.069 366.443 410.475C365.586 409.908 364.948 409.064 364.636 408.083C364.345 407.182 364.28 406.223 364.444 405.29C364.587 404.442 364.959 403.649 365.519 402.997C366.002 402.439 366.596 401.989 367.263 401.676C368.238 401.221 369.332 401.093 370.385 401.309C370.767 401.382 371.136 401.514 371.478 401.699C371.449 401.699 371.094 401.553 370.367 401.425C369.342 401.26 368.29 401.417 367.356 401.874C366.664 402.189 366.06 402.67 365.597 403.274C365.134 403.878 364.826 404.586 364.699 405.336C364.546 406.224 364.614 407.135 364.897 407.99C365.19 408.907 365.787 409.695 366.589 410.225C367.429 410.787 368.401 411.12 369.408 411.191C369.862 411.245 370.322 411.194 370.753 411.043C371.184 410.892 371.575 410.644 371.896 410.318L371.862 410.417C371.734 407.891 371.629 405.761 371.548 404.167C371.519 403.427 371.495 402.822 371.478 402.362C371.473 402.141 371.482 401.919 371.507 401.699V401.699Z" fill="#263238"/>
<path d="M367.35 401.699C367.35 401.699 369.007 367.512 369.862 362.612C370.716 357.711 372.914 349.808 376.373 344.995C379.68 340.414 380.006 340.094 380.006 340.094L379.785 344.36C376.648 349.882 374.407 355.868 373.146 362.094C371.303 371.778 370.036 401.67 370.036 401.67L367.35 401.699Z" fill="#263238"/>
<path d="M415.88 407.81C414.91 407.799 413.951 407.602 413.055 407.228L413.497 406.151C414.681 406.671 416.006 406.776 417.258 406.448C417.875 406.266 418.443 405.946 418.92 405.513C419.396 405.079 419.768 404.543 420.008 403.945C420.386 402.763 420.406 401.496 420.066 400.302C419.831 399.418 419.542 398.549 419.199 397.701C419.054 397.322 418.909 396.944 418.769 396.537C416.328 389.663 416.752 381.987 417.124 375.183L418.287 375.247C417.921 381.923 417.508 389.494 419.874 396.147C420.008 396.525 420.147 396.892 420.287 397.264C420.651 398.157 420.958 399.073 421.205 400.005C421.608 401.428 421.572 402.94 421.1 404.341C420.802 405.106 420.333 405.793 419.728 406.348C419.124 406.903 418.4 407.311 417.612 407.542C417.051 407.717 416.468 407.807 415.88 407.81V407.81Z" fill="#E0E0E0"/>
<path d="M415.77 408.322C413.828 408.322 412.13 407.408 410.654 405.581C408.735 403.218 408.427 397.357 408.16 392.195C408.067 390.344 407.974 388.598 407.811 387.329C407.23 382.86 404.678 376.853 404.654 376.801L405.718 376.341C405.829 376.591 408.369 382.545 408.962 387.184C409.131 388.493 409.224 390.263 409.323 392.131C409.567 396.88 409.875 402.793 411.555 404.859C414.09 407.985 417.165 407.955 421.525 404.76L422.211 405.703C419.81 407.443 417.688 408.322 415.77 408.322Z" fill="#EBEBEB"/>
<path d="M419.868 405.755C420.085 405.158 420.384 404.594 420.757 404.079C421.113 403.577 421.652 403.236 422.257 403.131C422.56 403.095 422.866 403.155 423.133 403.302C423.4 403.449 423.614 403.676 423.745 403.951C423.86 404.24 423.896 404.554 423.849 404.861C423.802 405.168 423.674 405.456 423.478 405.697C423.099 406.141 422.573 406.435 421.996 406.524C421.434 406.596 420.866 406.596 420.304 406.524" fill="#263238"/>
<path d="M408.265 355.034C412.818 360.885 415.548 367.95 416.113 375.346H418.531C418.031 366.869 414.709 358.804 409.096 352.438C409.706 350.507 410.151 348.527 410.427 346.52C410.962 341.974 405.98 339.221 405.98 339.221V342.667C406.609 343.024 407.13 343.544 407.488 344.173C407.846 344.802 408.028 345.516 408.015 346.24C407.904 348.69 406.067 353.899 404.271 358.392C402.758 362.078 402.081 366.053 402.288 370.032C402.457 375.125 404.445 377.435 404.445 377.435L406.846 376.417C406.846 376.417 405.41 374.618 404.788 369.701C404.312 365.941 405.422 363.002 406.387 360.284C406.875 358.934 407.579 357.071 408.265 355.034Z" fill="#263238"/>
<path d="M338.784 406.134L335.877 417.233C335.389 418.994 335.366 420.853 335.812 422.626C336.257 424.4 337.155 426.027 338.417 427.348C338.574 427.505 338.737 427.662 338.9 427.807C340.418 429.167 342.284 430.077 344.29 430.433C346.295 430.79 348.36 430.58 350.253 429.827L380.361 417.832L375.913 404.242L353.119 410.743L338.784 406.134Z" fill="#FFD4C7"/>
<path d="M363.502 387.638L368.961 416.738C369.075 417.352 369.406 417.905 369.894 418.295C370.382 418.685 370.993 418.887 371.617 418.862L413.322 417.25C414.01 417.223 414.66 416.924 415.129 416.419C415.599 415.915 415.85 415.245 415.828 414.555L414.874 387.062C414.852 386.386 414.567 385.746 414.081 385.276C413.595 384.807 412.945 384.545 412.27 384.547H366.06C365.677 384.547 365.298 384.631 364.951 384.793C364.604 384.956 364.298 385.194 364.053 385.489C363.809 385.784 363.633 386.13 363.537 386.502C363.442 386.873 363.43 387.261 363.502 387.638Z" fill="#455A64"/>
<path d="M409.067 399.487C408.286 399.486 407.523 399.72 406.877 400.161C406.232 400.601 405.735 401.227 405.451 401.955C404.87 403.532 403.963 405.371 402.986 405.901C401.178 406.89 398.051 407.682 396.411 406.873C394.772 406.064 388.191 400.145 387.04 400.803C385.889 401.46 384.901 402.939 386.052 404.26C387.203 405.581 393.272 409.527 392.109 410.848C390.947 412.169 378.157 406.367 376.163 406.879C374.169 407.391 373.042 408.625 374.193 409.399C375.344 410.173 384.075 413.473 384.546 414.637C384.546 414.637 371.396 411.18 370.902 412.006C370.408 412.833 369.588 414.142 370.902 414.637C372.216 415.132 383.564 418.094 384.546 418.589C386.178 419.268 387.88 419.764 389.621 420.067C389.976 420.067 392.528 420.934 394.917 421.749C397.579 422.675 400.487 422.598 403.097 421.534L404.428 420.986C405.436 420.572 406.29 419.854 406.871 418.93C407.451 418.007 407.729 416.925 407.666 415.836L407.398 411.348L408.834 407.641L409.067 399.487Z" fill="#FFD4C7"/>
<path d="M398.533 422.377C398.533 422.377 422.53 444.127 430.611 444.191C439.128 444.255 443.924 435.408 443.017 429.908C442.528 426.999 441.273 411.64 441.273 411.64C435.57 410.08 427.047 409.381 420.973 413.426L423.187 422.377L407.166 414.625L398.533 422.377Z" fill="#FFD4C7"/>
<path d="M445.813 412.635C445.72 412.63 445.629 412.615 445.54 412.588L444.761 412.402C444.092 412.239 443.121 412 441.918 411.727C438.796 410.974 435.595 410.603 432.384 410.621C430.628 410.677 428.878 410.871 427.152 411.203C425.735 411.451 424.35 411.859 423.025 412.419C422.135 412.806 421.305 413.318 420.56 413.938C420.042 414.387 419.792 414.678 419.769 414.66C419.812 414.577 419.867 414.5 419.932 414.433C420.104 414.228 420.288 414.033 420.484 413.851C421.212 413.184 422.04 412.636 422.937 412.227C424.267 411.626 425.665 411.19 427.1 410.929C428.846 410.573 430.62 410.365 432.402 410.307C435.636 410.281 438.859 410.684 441.988 411.506C443.191 411.808 444.156 412.088 444.819 412.28L445.575 412.518C445.726 412.594 445.819 412.623 445.813 412.635Z" fill="#263238"/>
<path d="M515.817 469.455C515.817 469.537 431.274 469.607 327.012 469.607C222.749 469.607 138.183 469.537 138.183 469.455C138.183 469.374 222.709 469.304 327.012 469.304C431.314 469.304 515.817 469.374 515.817 469.455Z" fill="#263238"/>
<path d="M465.357 443.364C466.584 445.11 468.933 444.499 470.008 443.434C471.083 442.369 471.537 440.833 471.944 439.36C472.88 436.019 473.816 432.51 473.077 429.123C472.901 428.094 472.442 427.135 471.752 426.352C471.403 425.966 470.96 425.678 470.465 425.516C469.97 425.355 469.442 425.326 468.933 425.433C467.77 425.759 467.026 426.929 466.503 428.034C464.962 431.311 464.168 434.889 464.177 438.51C464.177 440.192 464.398 441.962 465.34 443.341" fill="#407BFF"/>
<g opacity="0.2">
<path opacity="0.2" d="M465.357 443.364C466.584 445.11 468.933 444.499 470.008 443.434C471.083 442.369 471.537 440.833 471.944 439.36C472.88 436.019 473.816 432.51 473.077 429.123C472.901 428.094 472.442 427.135 471.752 426.352C471.403 425.966 470.96 425.678 470.465 425.516C469.97 425.355 469.442 425.326 468.933 425.433C467.77 425.759 467.026 426.929 466.503 428.034C464.962 431.311 464.168 434.889 464.177 438.51C464.177 440.192 464.398 441.962 465.34 443.341" fill="black"/>
</g>
<path d="M469.973 452.094C471.995 451.128 474.272 450.832 476.472 451.25C477.675 451.348 478.811 451.846 479.699 452.665C480.507 453.544 480.67 455.103 479.757 455.871C479.165 456.279 478.45 456.469 477.734 456.407C475.99 456.407 474.101 456.11 472.734 457.158C471.955 457.74 471.444 458.741 470.508 459.038C470.04 459.149 469.548 459.105 469.107 458.913C468.666 458.721 468.299 458.391 468.061 457.973C467.606 457.112 467.5 456.11 467.764 455.173C467.87 454.524 468.124 453.908 468.507 453.374C468.89 452.84 469.392 452.402 469.973 452.094V452.094Z" fill="#407BFF"/>
<path d="M462.067 445.873C462.686 445.053 463.095 444.094 463.258 443.079C463.421 442.065 463.334 441.026 463.003 440.053C462.319 438.111 461.112 436.397 459.515 435.1C457.709 433.52 455.614 432.304 453.347 431.521C452.469 431.176 451.527 431.024 450.586 431.072C450.111 431.102 449.651 431.247 449.246 431.496C448.84 431.744 448.502 432.088 448.26 432.498C447.627 433.732 448.26 435.222 448.935 436.439C450.129 438.581 451.49 440.626 453.004 442.555C454.219 444.103 455.62 445.634 457.463 446.321C459.306 447.008 461.224 446.903 462.189 445.628" fill="#407BFF"/>
<path d="M465.491 469.467C465.554 469.208 465.589 468.942 465.596 468.676C465.648 468.094 465.712 467.389 465.788 466.534C465.885 465.475 466.039 464.422 466.247 463.379C466.517 462.112 466.889 460.868 467.357 459.66C467.817 458.451 468.447 457.315 469.229 456.285C469.862 455.445 470.674 454.757 471.607 454.271C472.239 453.951 472.918 453.733 473.618 453.625C473.881 453.611 474.142 453.573 474.397 453.509C474.134 453.48 473.869 453.48 473.607 453.509C472.875 453.571 472.162 453.768 471.502 454.091C470.521 454.561 469.663 455.254 468.997 456.116C468.183 457.162 467.529 458.323 467.055 459.561C466.58 460.789 466.21 462.054 465.95 463.344C465.757 464.399 465.627 465.464 465.561 466.534C465.497 467.448 465.48 468.187 465.468 468.693C465.449 468.951 465.456 469.211 465.491 469.467V469.467Z" fill="#263238"/>
<path d="M465.625 467.814C465.64 467.692 465.64 467.569 465.625 467.447C465.625 467.174 465.625 466.831 465.625 466.406C465.625 465.498 465.625 464.188 465.625 462.57C465.683 459.334 465.927 454.865 466.427 449.953C466.927 445.041 467.59 440.641 468.241 437.445C468.392 436.648 468.537 435.932 468.683 435.304C468.828 434.675 468.933 434.14 469.043 433.697C469.153 433.255 469.217 432.947 469.281 432.679C469.326 432.671 469.365 432.647 469.393 432.611C469.42 432.575 469.433 432.53 469.429 432.485C469.425 432.44 469.404 432.399 469.371 432.368C469.338 432.338 469.294 432.321 469.249 432.321C469.204 432.321 469.161 432.338 469.128 432.368C469.095 432.399 469.074 432.44 469.07 432.485C469.066 432.53 469.079 432.575 469.106 432.611C469.133 432.647 469.173 432.671 469.217 432.679C469.136 432.941 469.043 433.261 468.921 433.68C468.799 434.099 468.659 434.652 468.502 435.28C468.345 435.909 468.183 436.619 468.014 437.416C467.155 441.554 466.517 445.735 466.101 449.941C465.602 454.865 465.392 459.34 465.398 462.588C465.398 464.212 465.439 465.498 465.485 466.429C465.485 466.848 465.538 467.197 465.555 467.471C465.567 467.587 465.59 467.702 465.625 467.814V467.814Z" fill="#263238"/>
<path d="M465.578 459.154C465.608 458.792 465.608 458.428 465.578 458.066C465.532 457.367 465.427 456.355 465.218 455.115C464.652 451.896 463.7 448.758 462.381 445.768C461.112 442.736 459.302 439.961 457.038 437.579C456.649 437.163 456.231 436.774 455.789 436.415C455.597 436.252 455.428 436.095 455.26 435.967L454.771 435.641C454.481 435.423 454.174 435.229 453.853 435.059C454.914 435.883 455.924 436.771 456.876 437.719C459.071 440.116 460.841 442.872 462.108 445.867C462.832 447.501 463.447 449.18 463.951 450.895C464.375 452.295 464.728 453.715 465.009 455.15C465.241 456.372 465.381 457.373 465.462 458.06C465.475 458.427 465.514 458.792 465.578 459.154V459.154Z" fill="#263238"/>
<path d="M440.139 244.757H439.994C438.674 244.757 437.604 245.828 437.604 247.149V270.563C437.604 271.884 438.674 272.955 439.994 272.955H440.139C441.459 272.955 442.528 271.884 442.528 270.563V247.149C442.528 245.828 441.459 244.757 440.139 244.757Z" fill="#E0E0E0"/>
<path d="M440.139 253.184H439.994C438.674 253.184 437.604 254.255 437.604 255.576V270.563C437.604 271.884 438.674 272.955 439.994 272.955H440.139C441.459 272.955 442.528 271.884 442.528 270.563V255.576C442.528 254.255 441.459 253.184 440.139 253.184Z" fill="#407BFF"/>
<path d="M448.202 244.757H448.057C446.737 244.757 445.668 245.828 445.668 247.149V270.563C445.668 271.884 446.737 272.955 448.057 272.955H448.202C449.522 272.955 450.591 271.884 450.591 270.563V247.149C450.591 245.828 449.522 244.757 448.202 244.757Z" fill="#E0E0E0"/>
<path d="M448.202 257.555H448.057C446.737 257.555 445.668 258.626 445.668 259.947V270.563C445.668 271.884 446.737 272.955 448.057 272.955H448.202C449.522 272.955 450.591 271.884 450.591 270.563V259.947C450.591 258.626 449.522 257.555 448.202 257.555Z" fill="#407BFF"/>
<path d="M457.323 244.757H457.178C455.858 244.757 454.789 245.828 454.789 247.149V270.563C454.789 271.884 455.858 272.955 457.178 272.955H457.323C458.643 272.955 459.713 271.884 459.713 270.563V247.149C459.713 245.828 458.643 244.757 457.323 244.757Z" fill="#E0E0E0"/>
<path d="M457.323 249.855H457.178C455.858 249.855 454.789 250.926 454.789 252.247V270.569C454.789 271.89 455.858 272.961 457.178 272.961H457.323C458.643 272.961 459.713 271.89 459.713 270.569V252.247C459.713 250.926 458.643 249.855 457.323 249.855Z" fill="#407BFF"/>
<path d="M440.139 272.961C440.139 272.961 440.36 272.961 440.755 272.844C441.33 272.68 441.819 272.301 442.121 271.785C442.342 271.42 442.457 271.001 442.453 270.574C442.453 270.091 442.453 269.573 442.453 269.015C442.453 267.897 442.453 266.623 442.453 265.22C442.453 262.403 442.453 259.057 442.453 255.326C442.453 253.469 442.453 251.52 442.453 249.506V247.981C442.489 247.48 442.455 246.977 442.354 246.485C442.201 246.007 441.893 245.593 441.48 245.307C441.067 245.022 440.571 244.882 440.069 244.908C439.57 244.911 439.086 245.081 438.694 245.389C438.301 245.698 438.022 246.129 437.901 246.613C437.827 247.114 437.804 247.621 437.831 248.127V249.634C437.831 251.654 437.831 253.603 437.831 255.454C437.831 259.167 437.831 262.514 437.831 265.348C437.831 266.751 437.831 268.019 437.831 269.143C437.831 269.725 437.831 270.225 437.831 270.697C437.855 271.114 437.994 271.517 438.232 271.861C438.571 272.353 439.081 272.702 439.662 272.838C440.063 272.92 440.284 272.902 440.284 272.92C440.075 272.956 439.86 272.956 439.651 272.92C439.041 272.803 438.498 272.457 438.133 271.954C437.87 271.587 437.715 271.153 437.686 270.702C437.686 270.214 437.686 269.701 437.686 269.143C437.686 268.019 437.686 266.751 437.686 265.348C437.686 262.531 437.686 259.185 437.651 255.454C437.651 253.592 437.651 251.642 437.651 249.634C437.651 249.128 437.651 248.616 437.651 248.103V247.353C437.642 247.079 437.668 246.805 437.726 246.538C437.866 245.988 438.183 245.5 438.629 245.15C439.075 244.8 439.625 244.609 440.191 244.606C440.76 244.584 441.32 244.745 441.79 245.065C442.248 245.391 442.589 245.857 442.761 246.392C442.837 246.657 442.876 246.931 442.877 247.207V247.981C442.877 248.499 442.877 249.005 442.877 249.512C442.877 251.537 442.877 253.487 442.877 255.332C442.877 259.045 442.877 262.391 442.842 265.226C442.842 266.628 442.842 267.903 442.842 269.02C442.842 269.602 442.842 270.097 442.842 270.58C442.836 271.029 442.707 271.468 442.47 271.849C442.281 272.14 442.031 272.386 441.736 272.57C441.442 272.754 441.111 272.872 440.767 272.914C440.562 272.966 440.349 272.981 440.139 272.961V272.961Z" fill="#263238"/>
<path d="M448.196 272.961C448.196 272.961 448.417 272.961 448.813 272.844C449.307 272.707 449.742 272.41 450.05 271.999C450.358 271.589 450.522 271.088 450.516 270.574C450.516 270.091 450.516 269.573 450.516 269.015C450.516 267.897 450.516 266.623 450.516 265.22C450.516 262.403 450.516 259.057 450.516 255.326C450.516 253.469 450.516 251.52 450.516 249.506V247.981C450.55 247.48 450.515 246.977 450.411 246.485C450.254 246.01 449.948 245.598 449.538 245.311C449.128 245.024 448.637 244.876 448.137 244.891C447.637 244.905 447.155 245.08 446.763 245.391C446.37 245.701 446.088 246.13 445.958 246.613C445.887 247.114 445.865 247.621 445.894 248.127C445.894 248.639 445.894 249.151 445.894 249.657C445.894 251.677 445.894 253.627 445.894 255.477C445.894 259.19 445.894 262.537 445.859 265.371C445.859 266.774 445.859 268.043 445.859 269.166C445.859 269.748 445.859 270.248 445.859 270.72C445.889 271.136 446.027 271.538 446.261 271.884C446.601 272.377 447.113 272.726 447.696 272.862C448.092 272.943 448.318 272.926 448.313 272.943C448.103 272.979 447.889 272.979 447.679 272.943C447.153 272.843 446.676 272.57 446.321 272.169C445.967 271.768 445.755 271.26 445.72 270.726C445.72 270.237 445.72 269.725 445.72 269.166C445.72 268.043 445.72 266.774 445.72 265.371C445.72 262.554 445.72 259.208 445.691 255.477C445.691 253.615 445.691 251.665 445.691 249.657V247.329C445.679 247.056 445.705 246.781 445.766 246.514C445.905 245.964 446.222 245.475 446.668 245.126C447.114 244.776 447.664 244.585 448.231 244.582C448.798 244.56 449.356 244.721 449.824 245.042C450.286 245.366 450.629 245.832 450.801 246.369C450.877 246.634 450.915 246.908 450.911 247.184V249.512C450.911 251.537 450.911 253.487 450.911 255.332C450.911 259.045 450.911 262.391 450.882 265.226C450.882 266.628 450.882 267.903 450.882 269.02C450.882 269.602 450.882 270.097 450.882 270.58C450.876 271.03 450.746 271.469 450.504 271.849C450.177 272.379 449.655 272.76 449.051 272.908C448.774 272.991 448.481 273.009 448.196 272.961V272.961Z" fill="#263238"/>
<path d="M457.317 272.961C457.317 272.961 457.538 272.961 457.934 272.844C458.428 272.707 458.863 272.41 459.171 271.999C459.479 271.589 459.643 271.088 459.637 270.574C459.637 270.091 459.637 269.573 459.637 269.015C459.637 267.897 459.637 266.623 459.637 265.22C459.637 262.403 459.637 259.057 459.602 255.326C459.602 253.469 459.602 251.52 459.602 249.506V247.981C459.636 247.48 459.601 246.977 459.497 246.485C459.34 246.01 459.034 245.598 458.624 245.311C458.215 245.024 457.723 244.876 457.223 244.89C456.723 244.905 456.241 245.08 455.849 245.391C455.456 245.701 455.174 246.13 455.044 246.613C454.974 247.114 454.95 247.621 454.975 248.127V249.634C454.975 251.654 454.975 253.603 454.975 255.454C454.975 259.167 454.975 262.514 454.94 265.348C454.94 266.751 454.94 268.019 454.94 269.143C454.94 269.725 454.94 270.225 454.94 270.697C454.967 271.114 455.105 271.516 455.341 271.861C455.68 272.352 456.19 272.701 456.771 272.838C457.172 272.92 457.393 272.902 457.393 272.92C457.183 272.956 456.969 272.956 456.759 272.92C456.234 272.819 455.756 272.547 455.402 272.146C455.047 271.745 454.836 271.237 454.8 270.702C454.8 270.214 454.8 269.701 454.8 269.143C454.8 268.019 454.8 266.751 454.8 265.348C454.8 262.531 454.8 259.185 454.8 255.454C454.8 253.592 454.8 251.642 454.8 249.634V247.306C454.789 247.032 454.814 246.758 454.876 246.491C455.014 245.941 455.331 245.452 455.778 245.102C456.224 244.752 456.774 244.561 457.341 244.559C457.906 244.532 458.464 244.693 458.928 245.016C459.393 245.339 459.738 245.806 459.91 246.346C459.987 246.61 460.024 246.885 460.021 247.16V249.488C460.021 251.514 460.021 253.464 460.021 255.308C460.021 259.022 460.021 262.368 460.021 265.202C460.021 266.605 460.021 267.88 460.021 268.997C460.021 269.579 460.021 270.074 460.021 270.557C460.015 271.007 459.884 271.446 459.643 271.826C459.316 272.356 458.794 272.736 458.189 272.885C457.909 272.979 457.61 273.005 457.317 272.961V272.961Z" fill="#263238"/>
<path d="M448.661 226.517C448.837 226.503 449.014 226.503 449.19 226.517L450.754 226.558C451.097 226.558 451.487 226.558 451.917 226.61L453.295 226.808L454.905 227.035L456.701 227.483C459.797 228.265 462.742 229.551 465.421 231.289C469.388 233.812 472.725 237.211 475.176 241.225C477.626 245.239 479.126 249.762 479.559 254.447C479.68 255.85 479.707 257.26 479.641 258.667C479.594 259.382 479.606 260.104 479.501 260.826C479.397 261.548 479.286 262.269 479.176 263.003C478.632 265.993 477.653 268.887 476.269 271.593C474.777 274.428 472.879 277.03 470.636 279.316C468.26 281.662 465.537 283.625 462.561 285.136C459.483 286.716 456.152 287.74 452.719 288.162C451.849 288.295 450.971 288.369 450.091 288.384C449.21 288.452 448.324 288.467 447.441 288.43C441.772 288.211 436.272 286.437 431.541 283.303L431.861 283.338L421.083 287.668L420.449 287.924L420.63 287.26L423.798 275.725L423.85 276.004C420.926 272.124 418.956 267.607 418.101 262.822C417.688 260.585 417.549 258.306 417.688 256.036C417.709 254.949 417.81 253.866 417.99 252.794C418.077 252.265 418.159 251.735 418.24 251.211C418.322 250.687 418.49 250.193 418.612 249.686C420.426 242.61 424.685 236.405 430.634 232.174C432.835 230.591 435.243 229.32 437.79 228.397L439.401 227.815L440.941 227.402L442.337 227.052C442.79 226.965 443.22 226.919 443.627 226.86C444.441 226.756 445.156 226.616 445.784 226.581L447.371 226.529H448.336C448.446 226.52 448.557 226.52 448.667 226.529C448.56 226.56 448.448 226.576 448.336 226.575L447.377 226.651L445.801 226.756C445.179 226.808 444.47 226.965 443.662 227.082C437.815 228.095 432.388 230.785 428.038 234.826C423.687 238.866 420.601 244.083 419.153 249.844C419.037 250.344 418.886 250.839 418.793 251.345C418.7 251.851 418.636 252.375 418.56 252.899C418.385 253.952 418.29 255.016 418.275 256.083C418.153 258.3 418.3 260.524 418.711 262.706C419.568 267.388 421.511 271.804 424.385 275.597L424.478 275.731L424.437 275.882C423.422 279.611 422.374 283.46 421.292 287.429L420.839 287.022C424.35 285.605 427.941 284.158 431.611 282.68L431.779 282.61L431.931 282.709C436.558 285.768 441.934 287.501 447.475 287.72C448.34 287.754 449.206 287.739 450.068 287.674C450.927 287.66 451.783 287.588 452.632 287.458C455.989 287.051 459.248 286.054 462.259 284.513C465.17 283.04 467.839 281.129 470.171 278.845C472.36 276.601 474.214 274.053 475.676 271.279C477.05 268.633 478.03 265.799 478.583 262.869C478.691 262.151 478.802 261.441 478.914 260.739C479.019 260.034 479.007 259.324 479.059 258.626C479.127 257.245 479.103 255.86 478.99 254.482C478.581 249.869 477.128 245.409 474.739 241.443C472.351 237.476 469.091 234.107 465.206 231.592C462.576 229.854 459.682 228.553 456.637 227.739L454.864 227.268L453.271 227.006L451.899 226.779C451.481 226.732 451.097 226.721 450.737 226.697L449.179 226.581C449.005 226.575 448.832 226.554 448.661 226.517V226.517Z" fill="#263238"/>
</svg>
